  0
SECTION
  2
HEADER
  9
$ACADVER
  1
AC1015
  9
$ACADMAINTVER
 70
6
  9
$DWGCODEPAGE
  3
ANSI_1252
  9
$INSBASE
 10
0.0
 20
0.0
 30
0.0
  9
$EXTMIN
 10
1e+20
 20
1e+20
 30
1e+20
  9
$EXTMAX
 10
-1e+20
 20
-1e+20
 30
-1e+20
  9
$LIMMIN
 10
0.0
 20
0.0
  9
$LIMMAX
 10
420.0
 20
297.0
  9
$ORTHOMODE
 70
0
  9
$REGENMODE
 70
1
  9
$FILLMODE
 70
1
  9
$QTEXTMODE
 70
0
  9
$MIRRTEXT
 70
1
  9
$LTSCALE
 40
1.0
  9
$ATTMODE
 70
1
  9
$TEXTSIZE
 40
2.5
  9
$TRACEWID
 40
1.0
  9
$TEXTSTYLE
  7
Standard
  9
$CLAYER
  8
0
  9
$CELTYPE
  6
ByLayer
  9
$CECOLOR
 62
256
  9
$CELTSCALE
 40
1.0
  9
$DISPSILH
 70
0
  9
$DIMSCALE
 40
1.0
  9
$DIMASZ
 40
2.5
  9
$DIMEXO
 40
0.625
  9
$DIMDLI
 40
3.75
  9
$DIMRND
 40
0.0
  9
$DIMDLE
 40
0.0
  9
$DIMEXE
 40
1.25
  9
$DIMTP
 40
0.0
  9
$DIMTM
 40
0.0
  9
$DIMTXT
 40
2.5
  9
$DIMCEN
 40
2.5
  9
$DIMTSZ
 40
0.0
  9
$DIMTOL
 70
0
  9
$DIMLIM
 70
0
  9
$DIMTIH
 70
0
  9
$DIMTOH
 70
0
  9
$DIMSE1
 70
0
  9
$DIMSE2
 70
0
  9
$DIMTAD
 70
1
  9
$DIMZIN
 70
8
  9
$DIMBLK
  1

  9
$DIMASO
 70
1
  9
$DIMSHO
 70
1
  9
$DIMPOST
  1

  9
$DIMAPOST
  1

  9
$DIMALT
 70
0
  9
$DIMALTD
 70
3
  9
$DIMALTF
 40
0.03937007874
  9
$DIMLFAC
 40
1.0
  9
$DIMTOFL
 70
1
  9
$DIMTVP
 40
0.0
  9
$DIMTIX
 70
0
  9
$DIMSOXD
 70
0
  9
$DIMSAH
 70
0
  9
$DIMBLK1
  1

  9
$DIMBLK2
  1

  9
$DIMSTYLE
  2
ISO-25
  9
$DIMCLRD
 70
0
  9
$DIMCLRE
 70
0
  9
$DIMCLRT
 70
0
  9
$DIMTFAC
 40
1.0
  9
$DIMGAP
 40
0.625
  9
$DIMJUST
 70
0
  9
$DIMSD1
 70
0
  9
$DIMSD2
 70
0
  9
$DIMTOLJ
 70
0
  9
$DIMTZIN
 70
8
  9
$DIMALTZ
 70
0
  9
$DIMALTTZ
 70
0
  9
$DIMUPT
 70
0
  9
$DIMDEC
 70
2
  9
$DIMTDEC
 70
2
  9
$DIMALTU
 70
2
  9
$DIMALTTD
 70
3
  9
$DIMTXSTY
  7
Standard
  9
$DIMAUNIT
 70
0
  9
$DIMADEC
 70
0
  9
$DIMALTRND
 40
0.0
  9
$DIMAZIN
 70
0
  9
$DIMDSEP
 70
44
  9
$DIMATFIT
 70
3
  9
$DIMFRAC
 70
0
  9
$DIMLDRBLK
  1

  9
$DIMLUNIT
 70
2
  9
$DIMLWD
 70
-2
  9
$DIMLWE
 70
-2
  9
$DIMTMOVE
 70
0
  9
$LUNITS
 70
2
  9
$LUPREC
 70
4
  9
$SKETCHINC
 40
1.0
  9
$FILLETRAD
 40
10.0
  9
$AUNITS
 70
0
  9
$AUPREC
 70
2
  9
$MENU
  1
.
  9
$ELEVATION
 40
0.0
  9
$PELEVATION
 40
0.0
  9
$THICKNESS
 40
0.0
  9
$LIMCHECK
 70
0
  9
$CHAMFERA
 40
0.0
  9
$CHAMFERB
 40
0.0
  9
$CHAMFERC
 40
0.0
  9
$CHAMFERD
 40
0.0
  9
$SKPOLY
 70
0
  9
$TDCREATE
 40
2461321.6032291665
  9
$TDUCREATE
 40
2458532.153996898
  9
$TDUPDATE
 40
2461321.6032291665
  9
$TDUUPDATE
 40
2458532.1544311
  9
$TDINDWG
 40
0.0
  9
$TDUSRTIMER
 40
0.0
  9
$USRTIMER
 70
1
  9
$ANGBASE
 50
0.0
  9
$ANGDIR
 70
0
  9
$PDMODE
 70
0
  9
$PDSIZE
 40
0.0
  9
$PLINEWID
 40
0.0
  9
$SPLFRAME
 70
0
  9
$SPLINETYPE
 70
6
  9
$SPLINESEGS
 70
8
  9
$HANDSEED
  5
31F
  9
$SURFTAB1
 70
6
  9
$SURFTAB2
 70
6
  9
$SURFTYPE
 70
6
  9
$SURFU
 70
6
  9
$SURFV
 70
6
  9
$UCSBASE
  2

  9
$UCSNAME
  2

  9
$UCSORG
 10
0.0
 20
0.0
 30
0.0
  9
$UCSXDIR
 10
1.0
 20
0.0
 30
0.0
  9
$UCSYDIR
 10
0.0
 20
1.0
 30
0.0
  9
$UCSORTHOREF
  2

  9
$UCSORTHOVIEW
 70
0
  9
$UCSORGTOP
 10
0.0
 20
0.0
 30
0.0
  9
$UCSORGBOTTOM
 10
0.0
 20
0.0
 30
0.0
  9
$UCSORGLEFT
 10
0.0
 20
0.0
 30
0.0
  9
$UCSORGRIGHT
 10
0.0
 20
0.0
 30
0.0
  9
$UCSORGFRONT
 10
0.0
 20
0.0
 30
0.0
  9
$UCSORGBACK
 10
0.0
 20
0.0
 30
0.0
  9
$PUCSBASE
  2

  9
$PUCSNAME
  2

  9
$PUCSORG
 10
0.0
 20
0.0
 30
0.0
  9
$PUCSXDIR
 10
1.0
 20
0.0
 30
0.0
  9
$PUCSYDIR
 10
0.0
 20
1.0
 30
0.0
  9
$PUCSORTHOREF
  2

  9
$PUCSORTHOVIEW
 70
0
  9
$PUCSORGTOP
 10
0.0
 20
0.0
 30
0.0
  9
$PUCSORGBOTTOM
 10
0.0
 20
0.0
 30
0.0
  9
$PUCSORGLEFT
 10
0.0
 20
0.0
 30
0.0
  9
$PUCSORGRIGHT
 10
0.0
 20
0.0
 30
0.0
  9
$PUCSORGFRONT
 10
0.0
 20
0.0
 30
0.0
  9
$PUCSORGBACK
 10
0.0
 20
0.0
 30
0.0
  9
$USERI1
 70
0
  9
$USERI2
 70
0
  9
$USERI3
 70
0
  9
$USERI4
 70
0
  9
$USERI5
 70
0
  9
$USERR1
 40
0.0
  9
$USERR2
 40
0.0
  9
$USERR3
 40
0.0
  9
$USERR4
 40
0.0
  9
$USERR5
 40
0.0
  9
$WORLDVIEW
 70
1
  9
$SHADEDGE
 70
3
  9
$SHADEDIF
 70
70
  9
$TILEMODE
 70
1
  9
$MAXACTVP
 70
64
  9
$PINSBASE
 10
0.0
 20
0.0
 30
0.0
  9
$PLIMCHECK
 70
0
  9
$PEXTMIN
 10
1e+20
 20
1e+20
 30
1e+20
  9
$PEXTMAX
 10
-1e+20
 20
-1e+20
 30
-1e+20
  9
$PLIMMIN
 10
0.0
 20
0.0
  9
$PLIMMAX
 10
420.0
 20
297.0
  9
$UNITMODE
 70
0
  9
$VISRETAIN
 70
1
  9
$PLINEGEN
 70
0
  9
$PSLTSCALE
 70
1
  9
$TREEDEPTH
 70
3020
  9
$CMLSTYLE
  2
Standard
  9
$CMLJUST
 70
0
  9
$CMLSCALE
 40
20.0
  9
$PROXYGRAPHICS
 70
1
  9
$MEASUREMENT
 70
1
  9
$CELWEIGHT
370
-1
  9
$ENDCAPS
280
0
  9
$JOINSTYLE
280
0
  9
$LWDISPLAY
290
0
  9
$INSUNITS
 70
4
  9
$HYPERLINKBASE
  1

  9
$STYLESHEET
  1

  9
$XEDIT
290
1
  9
$CEPSNTYPE
380
0
  9
$PSTYLEMODE
290
1
  9
$FINGERPRINTGUID
  2
{D7F37F26-73A2-4262-8D1C-9AC611FF6CF6}
  9
$VERSIONGUID
  2
{B516E9A7-A5D6-4A81-AA6B-F7BC12BE9C7A}
  9
$EXTNAMES
290
1
  9
$PSVPSCALE
 40
0.0
  9
$OLESTARTUP
290
0
  0
ENDSEC
  0
SECTION
  2
CLASSES
  0
CLASS
  1
ACDBDICTIONARYWDFLT
  2
AcDbDictionaryWithDefault
  3
ObjectDBX Classes
 90
0
280
0
281
0
  0
CLASS
  1
SUN
  2
AcDbSun
  3
SCENEOE
 90
1153
280
0
281
0
  0
CLASS
  1
VISUALSTYLE
  2
AcDbVisualStyle
  3
ObjectDBX Classes
 90
4095
280
0
281
0
  0
CLASS
  1
MATERIAL
  2
AcDbMaterial
  3
ObjectDBX Classes
 90
1153
280
0
281
0
  0
CLASS
  1
SCALE
  2
AcDbScale
  3
ObjectDBX Classes
 90
1153
280
0
281
0
  0
CLASS
  1
TABLESTYLE
  2
AcDbTableStyle
  3
ObjectDBX Classes
 90
4095
280
0
281
0
  0
CLASS
  1
MLEADERSTYLE
  2
AcDbMLeaderStyle
  3
ACDB_MLEADERSTYLE_CLASS
 90
4095
280
0
281
0
  0
CLASS
  1
DICTIONARYVAR
  2
AcDbDictionaryVar
  3
ObjectDBX Classes
 90
0
280
0
281
0
  0
CLASS
  1
CELLSTYLEMAP
  2
AcDbCellStyleMap
  3
ObjectDBX Classes
 90
1152
280
0
281
0
  0
CLASS
  1
MENTALRAYRENDERSETTINGS
  2
AcDbMentalRayRenderSettings
  3
SCENEOE
 90
1024
280
0
281
0
  0
CLASS
  1
ACDBDETAILVIEWSTYLE
  2
AcDbDetailViewStyle
  3
ObjectDBX Classes
 90
1025
280
0
281
0
  0
CLASS
  1
ACDBSECTIONVIEWSTYLE
  2
AcDbSectionViewStyle
  3
ObjectDBX Classes
 90
1025
280
0
281
0
  0
CLASS
  1
RASTERVARIABLES
  2
AcDbRasterVariables
  3
ISM
 90
0
280
0
281
0
  0
CLASS
  1
ACDBPLACEHOLDER
  2
AcDbPlaceHolder
  3
ObjectDBX Classes
 90
0
280
0
281
0
  0
CLASS
  1
LAYOUT
  2
AcDbLayout
  3
ObjectDBX Classes
 90
0
280
0
281
0
  0
ENDSEC
  0
SECTION
  2
TABLES
  0
TABLE
  2
VPORT
  5
8
330
0
100
AcDbSymbolTable
 70
1
  0
VPORT
  5
23
330
8
100
AcDbSymbolTableRecord
100
AcDbViewportTableRecord
  2
*Active
 70
0
 10
0.0
 20
0.0
 11
1.0
 21
1.0
 12
0.0
 22
0.0
 13
0.0
 23
0.0
 14
0.5
 24
0.5
 15
0.5
 25
0.5
 16
0.0
 26
0.0
 36
1.0
 17
0.0
 27
0.0
 37
0.0
 40
1000.0
 41
1.34
 42
50.0
 43
0.0
 44
0.0
 50
0.0
 51
0.0
 71
0
 72
1000
 73
1
 74
3
 75
0
 76
0
 77
0
 78
0
281
0
 65
0
146
0.0
  0
ENDTAB
  0
TABLE
  2
LTYPE
  5
2
330
0
100
AcDbSymbolTable
 70
21
  0
LTYPE
  5
24
330
2
100
AcDbSymbolTableRecord
100
AcDbLinetypeTableRecord
  2
ByBlock
 70
0
  3

 72
65
 73
0
 40
0.0
  0
LTYPE
  5
25
330
2
100
AcDbSymbolTableRecord
100
AcDbLinetypeTableRecord
  2
ByLayer
 70
0
  3

 72
65
 73
0
 40
0.0
  0
LTYPE
  5
26
330
2
100
AcDbSymbolTableRecord
100
AcDbLinetypeTableRecord
  2
Continuous
 70
0
  3

 72
65
 73
0
 40
0.0
  0
LTYPE
  5
2F
330
2
100
AcDbSymbolTableRecord
100
AcDbLinetypeTableRecord
  2
CENTER
 70
0
  3
Center ____ _ ____ _ ____ _ ____ _ ____ _ ____
 72
65
 73
4
 40
5.08
 49
3.175
 74
0
 49
-0.635
 74
0
 49
0.635
 74
0
 49
-0.635
 74
0
  0
LTYPE
  5
30
330
2
100
AcDbSymbolTableRecord
100
AcDbLinetypeTableRecord
  2
CENTERX2
 70
0
  3
Center (2x) ________  __  ________  __  ________
 72
65
 73
4
 40
8.89
 49
6.35
 74
0
 49
-0.635
 74
0
 49
1.27
 74
0
 49
-0.635
 74
0
  0
LTYPE
  5
31
330
2
100
AcDbSymbolTableRecord
100
AcDbLinetypeTableRecord
  2
CENTER2
 70
0
  3
Center (.5x) ____ _ ____ _ ____ _ ____ _ ____
 72
65
 73
4
 40
2.54
 49
1.587
 74
0
 49
-0.318
 74
0
 49
0.318
 74
0
 49
-0.318
 74
0
  0
LTYPE
  5
32
330
2
100
AcDbSymbolTableRecord
100
AcDbLinetypeTableRecord
  2
DASHED
 70
0
  3
Dashed __ __ __ __ __ __ __ __ __ __ __ __ __ _
 72
65
 73
2
 40
1.524
 49
1.27
 74
0
 49
-0.254
 74
0
  0
LTYPE
  5
33
330
2
100
AcDbSymbolTableRecord
100
AcDbLinetypeTableRecord
  2
DASHEDX2
 70
0
  3
Dashed (2x) ____  ____  ____  ____  ____  ____
 72
65
 73
2
 40
3.048
 49
2.54
 74
0
 49
-0.508
 74
0
  0
LTYPE
  5
34
330
2
100
AcDbSymbolTableRecord
100
AcDbLinetypeTableRecord
  2
DASHED2
 70
0
  3
Dashed (.5x) _ _ _ _ _ _ _ _ _ _ _ _ _ _
 72
65
 73
2
 40
0.762
 49
0.635
 74
0
 49
-0.127
 74
0
  0
LTYPE
  5
35
330
2
100
AcDbSymbolTableRecord
100
AcDbLinetypeTableRecord
  2
PHANTOM
 70
0
  3
Phantom ______  __  __  ______  __  __  ______
 72
65
 73
6
 40
6.35
 49
3.175
 74
0
 49
-0.635
 74
0
 49
0.635
 74
0
 49
-0.635
 74
0
 49
0.635
 74
0
 49
-0.635
 74
0
  0
LTYPE
  5
36
330
2
100
AcDbSymbolTableRecord
100
AcDbLinetypeTableRecord
  2
PHANTOMX2
 70
0
  3
Phantom (2x)____________    ____    ____    ____________
 72
65
 73
6
 40
10.795
 49
6.35
 74
0
 49
-0.635
 74
0
 49
1.27
 74
0
 49
-0.635
 74
0
 49
1.27
 74
0
 49
-0.635
 74
0
  0
LTYPE
  5
37
330
2
100
AcDbSymbolTableRecord
100
AcDbLinetypeTableRecord
  2
PHANTOM2
 70
0
  3
Phantom (.5x) ___ _ _ ___ _ _ ___ _ _ ___ _ _ ___
 72
65
 73
6
 40
3.175
 49
1.587
 74
0
 49
-0.318
 74
0
 49
0.318
 74
0
 49
-0.318
 74
0
 49
0.318
 74
0
 49
-0.318
 74
0
  0
LTYPE
  5
38
330
2
100
AcDbSymbolTableRecord
100
AcDbLinetypeTableRecord
  2
DASHDOT
 70
0
  3
Dash dot __ . __ . __ . __ . __ . __ . __ . __
 72
65
 73
4
 40
3.556
 49
2.54
 74
0
 49
-0.508
 74
0
 49
0.0
 74
0
 49
-0.508
 74
0
  0
LTYPE
  5
39
330
2
100
AcDbSymbolTableRecord
100
AcDbLinetypeTableRecord
  2
DASHDOTX2
 70
0
  3
Dash dot (2x) ____  .  ____  .  ____  .  ____
 72
65
 73
4
 40
6.096
 49
5.08
 74
0
 49
-0.508
 74
0
 49
0.0
 74
0
 49
-0.508
 74
0
  0
LTYPE
  5
3A
330
2
100
AcDbSymbolTableRecord
100
AcDbLinetypeTableRecord
  2
DASHDOT2
 70
0
  3
Dash dot (.5x) _ . _ . _ . _ . _ . _ . _ . _
 72
65
 73
4
 40
1.778
 49
1.27
 74
0
 49
-0.254
 74
0
 49
0.0
 74
0
 49
-0.254
 74
0
  0
LTYPE
  5
3B
330
2
100
AcDbSymbolTableRecord
100
AcDbLinetypeTableRecord
  2
DOT
 70
0
  3
Dot .  .  .  .  .  .  .  .  .  .  .  .  .  .  .  .
 72
65
 73
2
 40
0.508
 49
0.0
 74
0
 49
-0.508
 74
0
  0
LTYPE
  5
3C
330
2
100
AcDbSymbolTableRecord
100
AcDbLinetypeTableRecord
  2
DOTX2
 70
0
  3
Dot (2x) .    .    .    .    .    .    .    . 
 72
65
 73
2
 40
1.016
 49
0.0
 74
0
 49
-1.016
 74
0
  0
LTYPE
  5
3D
330
2
100
AcDbSymbolTableRecord
100
AcDbLinetypeTableRecord
  2
DOT2
 70
0
  3
Dot (.5) . . . . . . . . . . . . . . . . . . . 
 72
65
 73
2
 40
0.254
 49
0.0
 74
0
 49
-0.254
 74
0
  0
LTYPE
  5
3E
330
2
100
AcDbSymbolTableRecord
100
AcDbLinetypeTableRecord
  2
DIVIDE
 70
0
  3
Divide __ . . __ . . __ . . __ . . __ . . __
 72
65
 73
6
 40
4.064
 49
2.54
 74
0
 49
-0.508
 74
0
 49
0.0
 74
0
 49
-0.508
 74
0
 49
0.0
 74
0
 49
-0.508
 74
0
  0
LTYPE
  5
3F
330
2
100
AcDbSymbolTableRecord
100
AcDbLinetypeTableRecord
  2
DIVIDEX2
 70
0
  3
Divide (2x) ____  . .  ____  . .  ____  . .  ____
 72
65
 73
6
 40
6.604
 49
5.08
 74
0
 49
-0.508
 74
0
 49
0.0
 74
0
 49
-0.508
 74
0
 49
0.0
 74
0
 49
-0.508
 74
0
  0
LTYPE
  5
40
330
2
100
AcDbSymbolTableRecord
100
AcDbLinetypeTableRecord
  2
DIVIDE2
 70
0
  3
Divide(.5x) _ . _ . _ . _ . _ . _ . _ . _
 72
65
 73
6
 40
2.032
 49
1.27
 74
0
 49
-0.254
 74
0
 49
0.0
 74
0
 49
-0.254
 74
0
 49
0.0
 74
0
 49
-0.254
 74
0
  0
ENDTAB
  0
TABLE
  2
LAYER
  5
1
330
0
100
AcDbSymbolTable
 70
8
  0
LAYER
  5
27
330
1
100
AcDbSymbolTableRecord
100
AcDbLayerTableRecord
  2
0
 70
0
 62
7
  6
Continuous
370
-3
390
13
  0
LAYER
  5
28
330
1
100
AcDbSymbolTableRecord
100
AcDbLayerTableRecord
  2
Defpoints
 70
0
 62
7
  6
Continuous
290
0
370
-3
390
13
  0
LAYER
  5
41
330
1
100
AcDbSymbolTableRecord
100
AcDbLayerTableRecord
  2
KONTUR
 70
0
 62
7
  6
Continuous
370
50
390
13
  0
LAYER
  5
42
330
1
100
AcDbSymbolTableRecord
100
AcDbLayerTableRecord
  2
OTWOR
 70
0
 62
7
  6
Continuous
370
50
390
13
  0
LAYER
  5
43
330
1
100
AcDbSymbolTableRecord
100
AcDbLayerTableRecord
  2
OSIE
 70
0
 62
1
  6
CENTER
370
18
390
13
  0
LAYER
  5
44
330
1
100
AcDbSymbolTableRecord
100
AcDbLayerTableRecord
  2
WYMIARY
 70
0
 62
3
  6
Continuous
370
18
390
13
  0
LAYER
  5
45
330
1
100
AcDbSymbolTableRecord
100
AcDbLayerTableRecord
  2
OPISY
 70
0
 62
2
  6
Continuous
370
18
390
13
  0
LAYER
  5
46
330
1
100
AcDbSymbolTableRecord
100
AcDbLayerTableRecord
  2
ZAKRES_OBROTU
 70
0
 62
8
  6
DASHED
370
13
390
13
  0
ENDTAB
  0
TABLE
  2
STYLE
  5
5
330
0
100
AcDbSymbolTable
 70
1
  0
STYLE
  5
29
330
5
100
AcDbSymbolTableRecord
100
AcDbTextStyleTableRecord
  2
Standard
 70
0
 40
0.0
 41
1.0
 50
0.0
 71
0
 42
2.5
  3
simplex.shx
  4

  0
ENDTAB
  0
TABLE
  2
VIEW
  5
7
330
0
100
AcDbSymbolTable
 70
0
  0
ENDTAB
  0
TABLE
  2
UCS
  5
6
330
0
100
AcDbSymbolTable
 70
0
  0
ENDTAB
  0
TABLE
  2
APPID
  5
3
330
0
100
AcDbSymbolTable
 70
3
  0
APPID
  5
2A
330
3
100
AcDbSymbolTableRecord
100
AcDbRegAppTableRecord
  2
ACAD
 70
0
  0
APPID
  5
31C
330
3
100
AcDbSymbolTableRecord
100
AcDbRegAppTableRecord
  2
HATCHBACKGROUNDCOLOR
 70
0
  0
APPID
  5
31D
330
3
100
AcDbSymbolTableRecord
100
AcDbRegAppTableRecord
  2
EZDXF
 70
0
  0
ENDTAB
  0
TABLE
  2
DIMSTYLE
  5
4
330
0
100
AcDbSymbolTable
 70
2
100
AcDbDimStyleTable
  0
DIMSTYLE
105
2B
330
4
100
AcDbSymbolTableRecord
100
AcDbDimStyleTableRecord
  2
Standard
 70
0
  3

  4

 40
1.0
 41
2.5
 42
0.625
 43
3.75
 44
1.25
 45
0.0
 46
0.0
 47
0.0
 48
0.0
140
2.5
141
2.5
142
0.0
143
0.03937007874
144
1.0
145
0.0
146
1.0
147
0.625
148
0.0
 71
0
 72
0
 73
0
 74
0
 75
0
 76
0
 77
1
 78
8
 79
3
170
0
171
3
172
1
173
0
174
0
175
0
176
0
177
0
178
0
179
2
271
2
272
2
273
2
274
3
275
0
276
0
277
2
278
44
279
0
280
0
281
0
282
0
283
0
284
8
285
0
286
0
288
0
289
3
371
-2
372
-2
  0
DIMSTYLE
105
47
330
4
100
AcDbSymbolTableRecord
100
AcDbDimStyleTableRecord
  2
HAK
 70
0
  3

  4

 40
1.0
 41
2.0
 42
0.8
 43
3.75
 44
1.0
 45
0.0
 46
0.0
 47
0.0
 48
0.0
140
2.5
141
2.5
142
0.0
143
0.03937007874
144
1.0
145
0.0
146
1.0
147
0.8
148
0.0
 71
0
 72
0
 73
0
 74
0
 75
0
 76
0
 77
1
 78
8
 79
3
170
0
171
3
172
1
173
0
174
0
175
0
176
3
177
3
178
3
179
2
271
1
272
2
273
2
274
3
275
0
276
0
277
2
278
44
279
0
280
0
281
0
282
0
283
0
284
8
285
0
286
0
288
0
289
3
340
29
371
-2
372
-2
  0
ENDTAB
  0
TABLE
  2
BLOCK_RECORD
  5
9
330
0
100
AcDbSymbolTable
 70
51
  0
BLOCK_RECORD
  5
17
330
9
100
AcDbSymbolTableRecord
100
AcDbBlockTableRecord
  2
*Model_Space
340
1A
  0
BLOCK_RECORD
  5
1B
330
9
100
AcDbSymbolTableRecord
100
AcDbBlockTableRecord
  2
*Paper_Space
340
1E
  0
BLOCK_RECORD
  5
4E
330
9
100
AcDbSymbolTableRecord
100
AcDbBlockTableRecord
  2
*D1
340
0
  0
BLOCK_RECORD
  5
53
330
9
100
AcDbSymbolTableRecord
100
AcDbBlockTableRecord
  2
_CLOSEDFILLED
340
0
  0
BLOCK_RECORD
  5
61
330
9
100
AcDbSymbolTableRecord
100
AcDbBlockTableRecord
  2
*D2
340
0
  0
BLOCK_RECORD
  5
70
330
9
100
AcDbSymbolTableRecord
100
AcDbBlockTableRecord
  2
*D3
340
0
  0
BLOCK_RECORD
  5
7F
330
9
100
AcDbSymbolTableRecord
100
AcDbBlockTableRecord
  2
*D4
340
0
  0
BLOCK_RECORD
  5
8E
330
9
100
AcDbSymbolTableRecord
100
AcDbBlockTableRecord
  2
*D5
340
0
  0
BLOCK_RECORD
  5
9D
330
9
100
AcDbSymbolTableRecord
100
AcDbBlockTableRecord
  2
*D6
340
0
  0
BLOCK_RECORD
  5
AC
330
9
100
AcDbSymbolTableRecord
100
AcDbBlockTableRecord
  2
*D7
340
0
  0
BLOCK_RECORD
  5
B7
330
9
100
AcDbSymbolTableRecord
100
AcDbBlockTableRecord
  2
*D8
340
0
  0
BLOCK_RECORD
  5
CA
330
9
100
AcDbSymbolTableRecord
100
AcDbBlockTableRecord
  2
*D9
340
0
  0
BLOCK_RECORD
  5
D9
330
9
100
AcDbSymbolTableRecord
100
AcDbBlockTableRecord
  2
*D10
340
0
  0
BLOCK_RECORD
  5
E8
330
9
100
AcDbSymbolTableRecord
100
AcDbBlockTableRecord
  2
*D11
340
0
  0
BLOCK_RECORD
  5
F7
330
9
100
AcDbSymbolTableRecord
100
AcDbBlockTableRecord
  2
*D12
340
0
  0
BLOCK_RECORD
  5
106
330
9
100
AcDbSymbolTableRecord
100
AcDbBlockTableRecord
  2
*D13
340
0
  0
BLOCK_RECORD
  5
115
330
9
100
AcDbSymbolTableRecord
100
AcDbBlockTableRecord
  2
*D14
340
0
  0
BLOCK_RECORD
  5
124
330
9
100
AcDbSymbolTableRecord
100
AcDbBlockTableRecord
  2
*D15
340
0
  0
BLOCK_RECORD
  5
12F
330
9
100
AcDbSymbolTableRecord
100
AcDbBlockTableRecord
  2
*D16
340
0
  0
BLOCK_RECORD
  5
142
330
9
100
AcDbSymbolTableRecord
100
AcDbBlockTableRecord
  2
*D17
340
0
  0
BLOCK_RECORD
  5
151
330
9
100
AcDbSymbolTableRecord
100
AcDbBlockTableRecord
  2
*D18
340
0
  0
BLOCK_RECORD
  5
160
330
9
100
AcDbSymbolTableRecord
100
AcDbBlockTableRecord
  2
*D19
340
0
  0
BLOCK_RECORD
  5
16F
330
9
100
AcDbSymbolTableRecord
100
AcDbBlockTableRecord
  2
*D20
340
0
  0
BLOCK_RECORD
  5
17E
330
9
100
AcDbSymbolTableRecord
100
AcDbBlockTableRecord
  2
*D21
340
0
  0
BLOCK_RECORD
  5
18D
330
9
100
AcDbSymbolTableRecord
100
AcDbBlockTableRecord
  2
*D22
340
0
  0
BLOCK_RECORD
  5
19C
330
9
100
AcDbSymbolTableRecord
100
AcDbBlockTableRecord
  2
*D23
340
0
  0
BLOCK_RECORD
  5
1A7
330
9
100
AcDbSymbolTableRecord
100
AcDbBlockTableRecord
  2
*D24
340
0
  0
BLOCK_RECORD
  5
1BA
330
9
100
AcDbSymbolTableRecord
100
AcDbBlockTableRecord
  2
*D25
340
0
  0
BLOCK_RECORD
  5
1C9
330
9
100
AcDbSymbolTableRecord
100
AcDbBlockTableRecord
  2
*D26
340
0
  0
BLOCK_RECORD
  5
1D8
330
9
100
AcDbSymbolTableRecord
100
AcDbBlockTableRecord
  2
*D27
340
0
  0
BLOCK_RECORD
  5
1E7
330
9
100
AcDbSymbolTableRecord
100
AcDbBlockTableRecord
  2
*D28
340
0
  0
BLOCK_RECORD
  5
1F6
330
9
100
AcDbSymbolTableRecord
100
AcDbBlockTableRecord
  2
*D29
340
0
  0
BLOCK_RECORD
  5
205
330
9
100
AcDbSymbolTableRecord
100
AcDbBlockTableRecord
  2
*D30
340
0
  0
BLOCK_RECORD
  5
214
330
9
100
AcDbSymbolTableRecord
100
AcDbBlockTableRecord
  2
*D31
340
0
  0
BLOCK_RECORD
  5
21F
330
9
100
AcDbSymbolTableRecord
100
AcDbBlockTableRecord
  2
*D32
340
0
  0
BLOCK_RECORD
  5
232
330
9
100
AcDbSymbolTableRecord
100
AcDbBlockTableRecord
  2
*D33
340
0
  0
BLOCK_RECORD
  5
241
330
9
100
AcDbSymbolTableRecord
100
AcDbBlockTableRecord
  2
*D34
340
0
  0
BLOCK_RECORD
  5
250
330
9
100
AcDbSymbolTableRecord
100
AcDbBlockTableRecord
  2
*D35
340
0
  0
BLOCK_RECORD
  5
25F
330
9
100
AcDbSymbolTableRecord
100
AcDbBlockTableRecord
  2
*D36
340
0
  0
BLOCK_RECORD
  5
26E
330
9
100
AcDbSymbolTableRecord
100
AcDbBlockTableRecord
  2
*D37
340
0
  0
BLOCK_RECORD
  5
27D
330
9
100
AcDbSymbolTableRecord
100
AcDbBlockTableRecord
  2
*D38
340
0
  0
BLOCK_RECORD
  5
28C
330
9
100
AcDbSymbolTableRecord
100
AcDbBlockTableRecord
  2
*D39
340
0
  0
BLOCK_RECORD
  5
297
330
9
100
AcDbSymbolTableRecord
100
AcDbBlockTableRecord
  2
*D40
340
0
  0
BLOCK_RECORD
  5
2AA
330
9
100
AcDbSymbolTableRecord
100
AcDbBlockTableRecord
  2
*D41
340
0
  0
BLOCK_RECORD
  5
2B9
330
9
100
AcDbSymbolTableRecord
100
AcDbBlockTableRecord
  2
*D42
340
0
  0
BLOCK_RECORD
  5
2C8
330
9
100
AcDbSymbolTableRecord
100
AcDbBlockTableRecord
  2
*D43
340
0
  0
BLOCK_RECORD
  5
2D7
330
9
100
AcDbSymbolTableRecord
100
AcDbBlockTableRecord
  2
*D44
340
0
  0
BLOCK_RECORD
  5
2E6
330
9
100
AcDbSymbolTableRecord
100
AcDbBlockTableRecord
  2
*D45
340
0
  0
BLOCK_RECORD
  5
2F5
330
9
100
AcDbSymbolTableRecord
100
AcDbBlockTableRecord
  2
*D46
340
0
  0
BLOCK_RECORD
  5
304
330
9
100
AcDbSymbolTableRecord
100
AcDbBlockTableRecord
  2
*D47
340
0
  0
BLOCK_RECORD
  5
30F
330
9
100
AcDbSymbolTableRecord
100
AcDbBlockTableRecord
  2
*D48
340
0
  0
ENDTAB
  0
ENDSEC
  0
SECTION
  2
BLOCKS
  0
BLOCK
  5
18
330
17
100
AcDbEntity
  8
0
100
AcDbBlockBegin
  2
*Model_Space
 70
0
 10
0.0
 20
0.0
 30
0.0
  3
*Model_Space
  1

  0
ENDBLK
  5
19
330
17
100
AcDbEntity
  8
0
100
AcDbBlockEnd
  0
BLOCK
  5
1C
330
1B
100
AcDbEntity
  8
0
100
AcDbBlockBegin
  2
*Paper_Space
 70
0
 10
0.0
 20
0.0
 30
0.0
  3
*Paper_Space
  1

  0
ENDBLK
  5
1D
330
1B
100
AcDbEntity
  8
0
100
AcDbBlockEnd
  0
BLOCK
  5
4F
330
4E
100
AcDbEntity
  8
0
100
AcDbBlockBegin
  2
*D1
 70
1
 10
0.0
 20
0.0
 30
0.0
  3
*D1
  1

  0
LINE
  5
51
330
4E
100
AcDbEntity
  8
0
 62
3
100
AcDbLine
 10
10.8
 20
10.0
 30
0.0
 11
18.0
 21
10.0
 31
0.0
  0
LINE
  5
52
330
4E
100
AcDbEntity
  8
0
 62
3
100
AcDbLine
 10
10.8
 20
-28.5
 30
0.0
 11
18.0
 21
-28.5
 31
0.0
  0
INSERT
  5
57
330
4E
100
AcDbEntity
  8
WYMIARY
 62
3
100
AcDbBlockReference
  2
_CLOSEDFILLED
 10
17.0
 20
10.0
 30
0.0
 41
2.0
 42
2.0
 50
270.0
  0
INSERT
  5
59
330
4E
100
AcDbEntity
  8
WYMIARY
 62
3
100
AcDbBlockReference
  2
_CLOSEDFILLED
 10
17.0
 20
-28.5
 30
0.0
 41
2.0
 42
2.0
 50
90.0
  0
LINE
  5
5B
330
4E
100
AcDbEntity
  8
0
 62
3
100
AcDbLine
 10
17.0
 20
12.0
 30
0.0
 11
17.0
 21
-30.5
 31
0.0
  0
MTEXT
  5
5C
330
4E
100
AcDbEntity
  8
WYMIARY
 62
3
100
AcDbMText
 10
19.05
 20
-9.25
 30
0.0
 40
2.5
 71
5
  1
38,5
 50
90.0
  0
POINT
  5
5D
330
4E
100
AcDbEntity
  8
Defpoints
100
AcDbPoint
 10
17.0
 20
10.0
 30
0.0
  0
POINT
  5
5E
330
4E
100
AcDbEntity
  8
Defpoints
100
AcDbPoint
 10
10.0
 20
10.0
 30
0.0
  0
POINT
  5
5F
330
4E
100
AcDbEntity
  8
Defpoints
100
AcDbPoint
 10
10.0
 20
-28.5
 30
0.0
  0
ENDBLK
  5
50
330
4E
100
AcDbEntity
  8
0
100
AcDbBlockEnd
  0
BLOCK
  5
54
330
53
100
AcDbEntity
  8
0
100
AcDbBlockBegin
  2
_CLOSEDFILLED
 70
0
 10
0.0
 20
0.0
 30
0.0
  3
_CLOSEDFILLED
  1

  0
SOLID
  5
56
330
53
100
AcDbEntity
  8
0
  6
BYBLOCK
 62
0
100
AcDbTrace
 10
-1.0
 20
0.16439898372402537
 30
0.0
 11
0.0
 21
0.0
 31
0.0
 12
-1.0
 22
-0.16439898372402537
 32
0.0
 13
-1.0
 23
-0.16439898372402537
 33
0.0
  0
ENDBLK
  5
55
330
53
100
AcDbEntity
  8
0
100
AcDbBlockEnd
  0
BLOCK
  5
62
330
61
100
AcDbEntity
  8
0
100
AcDbBlockBegin
  2
*D2
 70
1
 10
0.0
 20
0.0
 30
0.0
  3
*D2
  1

  0
LINE
  5
64
330
61
100
AcDbEntity
  8
0
 62
3
100
AcDbLine
 10
-10.0
 20
-29.3
 30
0.0
 11
-10.0
 21
-35.5
 31
0.0
  0
LINE
  5
65
330
61
100
AcDbEntity
  8
0
 62
3
100
AcDbLine
 10
10.0
 20
-29.3
 30
0.0
 11
10.0
 21
-35.5
 31
0.0
  0
INSERT
  5
66
330
61
100
AcDbEntity
  8
WYMIARY
 62
3
100
AcDbBlockReference
  2
_CLOSEDFILLED
 10
-10.0
 20
-34.5
 30
0.0
 41
2.0
 42
2.0
 50
180.0
  0
INSERT
  5
68
330
61
100
AcDbEntity
  8
WYMIARY
 62
3
100
AcDbBlockReference
  2
_CLOSEDFILLED
 10
10.0
 20
-34.5
 30
0.0
 41
2.0
 42
2.0
  0
LINE
  5
6A
330
61
100
AcDbEntity
  8
0
 62
3
100
AcDbLine
 10
-8.0
 20
-34.5
 30
0.0
 11
8.0
 21
-34.5
 31
0.0
  0
MTEXT
  5
6B
330
61
100
AcDbEntity
  8
WYMIARY
 62
3
100
AcDbMText
 10
0.0
 20
-32.45
 30
0.0
 40
2.5
 71
5
  1
20
  0
POINT
  5
6C
330
61
100
AcDbEntity
  8
Defpoints
100
AcDbPoint
 10
-10.0
 20
-34.5
 30
0.0
  0
POINT
  5
6D
330
61
100
AcDbEntity
  8
Defpoints
100
AcDbPoint
 10
-10.0
 20
-28.5
 30
0.0
  0
POINT
  5
6E
330
61
100
AcDbEntity
  8
Defpoints
100
AcDbPoint
 10
10.0
 20
-28.5
 30
0.0
  0
ENDBLK
  5
63
330
61
100
AcDbEntity
  8
0
100
AcDbBlockEnd
  0
BLOCK
  5
71
330
70
100
AcDbEntity
  8
0
100
AcDbBlockBegin
  2
*D3
 70
1
 10
0.0
 20
0.0
 30
0.0
  3
*D3
  1

  0
LINE
  5
73
330
70
100
AcDbEntity
  8
0
 62
3
100
AcDbLine
 10
-0.8
 20
0.0
 30
0.0
 11
-17.0
 21
0.0
 31
0.0
  0
LINE
  5
74
330
70
100
AcDbEntity
  8
0
 62
3
100
AcDbLine
 10
-10.8
 20
-23.7
 30
0.0
 11
-17.0
 21
-23.7
 31
0.0
  0
INSERT
  5
75
330
70
100
AcDbEntity
  8
WYMIARY
 62
3
100
AcDbBlockReference
  2
_CLOSEDFILLED
 10
-16.0
 20
0.0
 30
0.0
 41
2.0
 42
2.0
 50
270.0
  0
INSERT
  5
77
330
70
100
AcDbEntity
  8
WYMIARY
 62
3
100
AcDbBlockReference
  2
_CLOSEDFILLED
 10
-16.0
 20
-23.7
 30
0.0
 41
2.0
 42
2.0
 50
90.0
  0
LINE
  5
79
330
70
100
AcDbEntity
  8
0
 62
3
100
AcDbLine
 10
-16.0
 20
2.0
 30
0.0
 11
-16.0
 21
-25.7
 31
0.0
  0
MTEXT
  5
7A
330
70
100
AcDbEntity
  8
WYMIARY
 62
3
100
AcDbMText
 10
-13.95
 20
-11.85
 30
0.0
 40
2.5
 71
5
  1
23,7
 50
90.0
  0
POINT
  5
7B
330
70
100
AcDbEntity
  8
Defpoints
100
AcDbPoint
 10
-16.0
 20
0.0
 30
0.0
  0
POINT
  5
7C
330
70
100
AcDbEntity
  8
Defpoints
100
AcDbPoint
 10
0.0
 20
0.0
 30
0.0
  0
POINT
  5
7D
330
70
100
AcDbEntity
  8
Defpoints
100
AcDbPoint
 10
-10.0
 20
-23.7
 30
0.0
  0
ENDBLK
  5
72
330
70
100
AcDbEntity
  8
0
100
AcDbBlockEnd
  0
BLOCK
  5
80
330
7F
100
AcDbEntity
  8
0
100
AcDbBlockBegin
  2
*D4
 70
1
 10
0.0
 20
0.0
 30
0.0
  3
*D4
  1

  0
LINE
  5
82
330
7F
100
AcDbEntity
  8
0
 62
3
100
AcDbLine
 10
-10.8
 20
-23.7
 30
0.0
 11
-17.0
 21
-23.7
 31
0.0
  0
LINE
  5
83
330
7F
100
AcDbEntity
  8
0
 62
3
100
AcDbLine
 10
-10.8
 20
-28.5
 30
0.0
 11
-17.0
 21
-28.5
 31
0.0
  0
INSERT
  5
84
330
7F
100
AcDbEntity
  8
WYMIARY
 62
3
100
AcDbBlockReference
  2
_CLOSEDFILLED
 10
-16.0
 20
-23.7
 30
0.0
 41
2.0
 42
2.0
 50
270.0
  0
INSERT
  5
86
330
7F
100
AcDbEntity
  8
WYMIARY
 62
3
100
AcDbBlockReference
  2
_CLOSEDFILLED
 10
-16.0
 20
-28.5
 30
0.0
 41
2.0
 42
2.0
 50
90.0
  0
LINE
  5
88
330
7F
100
AcDbEntity
  8
0
 62
3
100
AcDbLine
 10
-16.0
 20
-21.7
 30
0.0
 11
-16.0
 21
-30.5
 31
0.0
  0
MTEXT
  5
89
330
7F
100
AcDbEntity
  8
WYMIARY
 62
3
100
AcDbMText
 10
-12.95
 20
-26.1
 30
0.0
 40
2.5
 71
5
  1
4,8
 50
90.0
  0
POINT
  5
8A
330
7F
100
AcDbEntity
  8
Defpoints
100
AcDbPoint
 10
-16.0
 20
-23.7
 30
0.0
  0
POINT
  5
8B
330
7F
100
AcDbEntity
  8
Defpoints
100
AcDbPoint
 10
-10.0
 20
-23.7
 30
0.0
  0
POINT
  5
8C
330
7F
100
AcDbEntity
  8
Defpoints
100
AcDbPoint
 10
-10.0
 20
-28.5
 30
0.0
  0
ENDBLK
  5
81
330
7F
100
AcDbEntity
  8
0
100
AcDbBlockEnd
  0
BLOCK
  5
8F
330
8E
100
AcDbEntity
  8
0
100
AcDbBlockBegin
  2
*D5
 70
1
 10
0.0
 20
0.0
 30
0.0
  3
*D5
  1

  0
LINE
  5
91
330
8E
100
AcDbEntity
  8
0
 62
3
100
AcDbLine
 10
-3.6
 20
4.4
 30
0.0
 11
-3.6
 21
14.0
 31
0.0
  0
LINE
  5
92
330
8E
100
AcDbEntity
  8
0
 62
3
100
AcDbLine
 10
3.6
 20
4.4
 30
0.0
 11
3.6
 21
14.0
 31
0.0
  0
INSERT
  5
93
330
8E
100
AcDbEntity
  8
WYMIARY
 62
3
100
AcDbBlockReference
  2
_CLOSEDFILLED
 10
-3.6
 20
13.0
 30
0.0
 41
2.0
 42
2.0
 50
180.0
  0
INSERT
  5
95
330
8E
100
AcDbEntity
  8
WYMIARY
 62
3
100
AcDbBlockReference
  2
_CLOSEDFILLED
 10
3.6
 20
13.0
 30
0.0
 41
2.0
 42
2.0
  0
LINE
  5
97
330
8E
100
AcDbEntity
  8
0
 62
3
100
AcDbLine
 10
-1.6
 20
13.0
 30
0.0
 11
1.6
 21
13.0
 31
0.0
  0
MTEXT
  5
98
330
8E
100
AcDbEntity
  8
WYMIARY
 62
3
100
AcDbMText
 10
0.0
 20
16.05
 30
0.0
 40
2.5
 71
5
  1
7,2
  0
POINT
  5
99
330
8E
100
AcDbEntity
  8
Defpoints
100
AcDbPoint
 10
-3.6
 20
13.0
 30
0.0
  0
POINT
  5
9A
330
8E
100
AcDbEntity
  8
Defpoints
100
AcDbPoint
 10
-3.6
 20
3.6
 30
0.0
  0
POINT
  5
9B
330
8E
100
AcDbEntity
  8
Defpoints
100
AcDbPoint
 10
3.6
 20
3.6
 30
0.0
  0
ENDBLK
  5
90
330
8E
100
AcDbEntity
  8
0
100
AcDbBlockEnd
  0
BLOCK
  5
9E
330
9D
100
AcDbEntity
  8
0
100
AcDbBlockBegin
  2
*D6
 70
1
 10
0.0
 20
0.0
 30
0.0
  3
*D6
  1

  0
LINE
  5
A0
330
9D
100
AcDbEntity
  8
0
 62
3
100
AcDbLine
 10
0.0
 20
-15.8
 30
0.0
 11
0.0
 21
-18.0
 31
0.0
  0
LINE
  5
A1
330
9D
100
AcDbEntity
  8
0
 62
3
100
AcDbLine
 10
10.0
 20
-15.8
 30
0.0
 11
10.0
 21
-18.0
 31
0.0
  0
INSERT
  5
A2
330
9D
100
AcDbEntity
  8
WYMIARY
 62
3
100
AcDbBlockReference
  2
_CLOSEDFILLED
 10
0.0
 20
-17.0
 30
0.0
 41
2.0
 42
2.0
 50
180.0
  0
INSERT
  5
A4
330
9D
100
AcDbEntity
  8
WYMIARY
 62
3
100
AcDbBlockReference
  2
_CLOSEDFILLED
 10
10.0
 20
-17.0
 30
0.0
 41
2.0
 42
2.0
  0
LINE
  5
A6
330
9D
100
AcDbEntity
  8
0
 62
3
100
AcDbLine
 10
2.0
 20
-17.0
 30
0.0
 11
8.0
 21
-17.0
 31
0.0
  0
MTEXT
  5
A7
330
9D
100
AcDbEntity
  8
WYMIARY
 62
3
100
AcDbMText
 10
5.0
 20
-14.95
 30
0.0
 40
2.5
 71
5
  1
10
  0
POINT
  5
A8
330
9D
100
AcDbEntity
  8
Defpoints
100
AcDbPoint
 10
0.0
 20
-17.0
 30
0.0
  0
POINT
  5
A9
330
9D
100
AcDbEntity
  8
Defpoints
100
AcDbPoint
 10
0.0
 20
-15.0
 30
0.0
  0
POINT
  5
AA
330
9D
100
AcDbEntity
  8
Defpoints
100
AcDbPoint
 10
10.0
 20
-15.0
 30
0.0
  0
ENDBLK
  5
9F
330
9D
100
AcDbEntity
  8
0
100
AcDbBlockEnd
  0
BLOCK
  5
AD
330
AC
100
AcDbEntity
  8
0
100
AcDbBlockBegin
  2
*D7
 70
1
 10
0.0
 20
0.0
 30
0.0
  3
*D7
  1

  0
INSERT
  5
AF
330
AC
100
AcDbEntity
  8
WYMIARY
 62
3
100
AcDbBlockReference
  2
_CLOSEDFILLED
 10
-7.071067811865475
 20
7.0710678118654755
 30
0.0
 41
2.0
 42
2.0
 50
315.0
  0
LINE
  5
B1
330
AC
100
AcDbEntity
  8
0
 62
3
100
AcDbLine
 10
0.0
 20
0.0
 30
0.0
 11
-7.071067811865475
 21
7.0710678118654755
 31
0.0
  0
LINE
  5
B2
330
AC
100
AcDbEntity
  8
0
 62
3
100
AcDbLine
 10
-8.48528137423857
 20
8.485281374238571
 30
0.0
 11
-14.354267658086915
 21
14.354267658086917
 31
0.0
  0
MTEXT
  5
B3
330
AC
100
AcDbEntity
  8
WYMIARY
 62
3
100
AcDbMText
 10
-10.253048327204938
 20
13.152186130069783
 30
0.0
 40
2.5
 71
5
  1
R10
 50
315.0
  0
POINT
  5
B4
330
AC
100
AcDbEntity
  8
Defpoints
100
AcDbPoint
 10
0.0
 20
0.0
 30
0.0
  0
POINT
  5
B5
330
AC
100
AcDbEntity
  8
Defpoints
100
AcDbPoint
 10
-7.071067811865475
 20
7.0710678118654755
 30
0.0
  0
ENDBLK
  5
AE
330
AC
100
AcDbEntity
  8
0
100
AcDbBlockEnd
  0
BLOCK
  5
B8
330
B7
100
AcDbEntity
  8
0
100
AcDbBlockBegin
  2
*D8
 70
1
 10
0.0
 20
0.0
 30
0.0
  3
*D8
  1

  0
INSERT
  5
BA
330
B7
100
AcDbEntity
  8
WYMIARY
 62
3
100
AcDbBlockReference
  2
_CLOSEDFILLED
 10
8.82842712474619
 20
-27.32842712474619
 30
0.0
 41
2.0
 42
2.0
 50
134.99999999999997
  0
LINE
  5
BC
330
B7
100
AcDbEntity
  8
0
 62
3
100
AcDbLine
 10
6.0
 20
-24.5
 30
0.0
 11
8.82842712474619
 21
-27.32842712474619
 31
0.0
  0
LINE
  5
BD
330
B7
100
AcDbEntity
  8
0
 62
3
100
AcDbLine
 10
10.242640687119284
 20
-28.742640687119287
 30
0.0
 11
14.343860018001259
 21
-32.843860018001266
 31
0.0
  0
MTEXT
  5
BE
330
B7
100
AcDbEntity
  8
WYMIARY
 62
3
100
AcDbMText
 10
14.025661966467313
 20
-29.626524163602475
 30
0.0
 40
2.5
 71
5
  1
R4
 50
315.0
  0
POINT
  5
BF
330
B7
100
AcDbEntity
  8
Defpoints
100
AcDbPoint
 10
6.0
 20
-24.5
 30
0.0
  0
POINT
  5
C0
330
B7
100
AcDbEntity
  8
Defpoints
100
AcDbPoint
 10
8.82842712474619
 20
-27.32842712474619
 30
0.0
  0
ENDBLK
  5
B9
330
B7
100
AcDbEntity
  8
0
100
AcDbBlockEnd
  0
BLOCK
  5
CB
330
CA
100
AcDbEntity
  8
0
100
AcDbBlockBegin
  2
*D9
 70
1
 10
0.0
 20
0.0
 30
0.0
  3
*D9
  1

  0
LINE
  5
CD
330
CA
100
AcDbEntity
  8
0
 62
3
100
AcDbLine
 10
80.8
 20
10.0
 30
0.0
 11
88.0
 21
10.0
 31
0.0
  0
LINE
  5
CE
330
CA
100
AcDbEntity
  8
0
 62
3
100
AcDbLine
 10
80.8
 20
-30.0
 30
0.0
 11
88.0
 21
-30.0
 31
0.0
  0
INSERT
  5
CF
330
CA
100
AcDbEntity
  8
WYMIARY
 62
3
100
AcDbBlockReference
  2
_CLOSEDFILLED
 10
87.0
 20
10.0
 30
0.0
 41
2.0
 42
2.0
 50
270.0
  0
INSERT
  5
D1
330
CA
100
AcDbEntity
  8
WYMIARY
 62
3
100
AcDbBlockReference
  2
_CLOSEDFILLED
 10
87.0
 20
-30.0
 30
0.0
 41
2.0
 42
2.0
 50
90.0
  0
LINE
  5
D3
330
CA
100
AcDbEntity
  8
0
 62
3
100
AcDbLine
 10
87.0
 20
12.0
 30
0.0
 11
87.0
 21
-32.0
 31
0.0
  0
MTEXT
  5
D4
330
CA
100
AcDbEntity
  8
WYMIARY
 62
3
100
AcDbMText
 10
89.05
 20
-10.0
 30
0.0
 40
2.5
 71
5
  1
40
 50
90.0
  0
POINT
  5
D5
330
CA
100
AcDbEntity
  8
Defpoints
100
AcDbPoint
 10
87.0
 20
10.0
 30
0.0
  0
POINT
  5
D6
330
CA
100
AcDbEntity
  8
Defpoints
100
AcDbPoint
 10
80.0
 20
10.0
 30
0.0
  0
POINT
  5
D7
330
CA
100
AcDbEntity
  8
Defpoints
100
AcDbPoint
 10
80.0
 20
-30.0
 30
0.0
  0
ENDBLK
  5
CC
330
CA
100
AcDbEntity
  8
0
100
AcDbBlockEnd
  0
BLOCK
  5
DA
330
D9
100
AcDbEntity
  8
0
100
AcDbBlockBegin
  2
*D10
 70
1
 10
0.0
 20
0.0
 30
0.0
  3
*D10
  1

  0
LINE
  5
DC
330
D9
100
AcDbEntity
  8
0
 62
3
100
AcDbLine
 10
60.0
 20
-30.8
 30
0.0
 11
60.0
 21
-37.0
 31
0.0
  0
LINE
  5
DD
330
D9
100
AcDbEntity
  8
0
 62
3
100
AcDbLine
 10
80.0
 20
-30.8
 30
0.0
 11
80.0
 21
-37.0
 31
0.0
  0
INSERT
  5
DE
330
D9
100
AcDbEntity
  8
WYMIARY
 62
3
100
AcDbBlockReference
  2
_CLOSEDFILLED
 10
60.0
 20
-36.0
 30
0.0
 41
2.0
 42
2.0
 50
180.0
  0
INSERT
  5
E0
330
D9
100
AcDbEntity
  8
WYMIARY
 62
3
100
AcDbBlockReference
  2
_CLOSEDFILLED
 10
80.0
 20
-36.0
 30
0.0
 41
2.0
 42
2.0
  0
LINE
  5
E2
330
D9
100
AcDbEntity
  8
0
 62
3
100
AcDbLine
 10
62.0
 20
-36.0
 30
0.0
 11
78.0
 21
-36.0
 31
0.0
  0
MTEXT
  5
E3
330
D9
100
AcDbEntity
  8
WYMIARY
 62
3
100
AcDbMText
 10
70.0
 20
-33.95
 30
0.0
 40
2.5
 71
5
  1
20
  0
POINT
  5
E4
330
D9
100
AcDbEntity
  8
Defpoints
100
AcDbPoint
 10
60.0
 20
-36.0
 30
0.0
  0
POINT
  5
E5
330
D9
100
AcDbEntity
  8
Defpoints
100
AcDbPoint
 10
60.0
 20
-30.0
 30
0.0
  0
POINT
  5
E6
330
D9
100
AcDbEntity
  8
Defpoints
100
AcDbPoint
 10
80.0
 20
-30.0
 30
0.0
  0
ENDBLK
  5
DB
330
D9
100
AcDbEntity
  8
0
100
AcDbBlockEnd
  0
BLOCK
  5
E9
330
E8
100
AcDbEntity
  8
0
100
AcDbBlockBegin
  2
*D11
 70
1
 10
0.0
 20
0.0
 30
0.0
  3
*D11
  1

  0
LINE
  5
EB
330
E8
100
AcDbEntity
  8
0
 62
3
100
AcDbLine
 10
69.2
 20
0.0
 30
0.0
 11
53.0
 21
0.0
 31
0.0
  0
LINE
  5
EC
330
E8
100
AcDbEntity
  8
0
 62
3
100
AcDbLine
 10
59.2
 20
-25.2
 30
0.0
 11
53.0
 21
-25.2
 31
0.0
  0
INSERT
  5
ED
330
E8
100
AcDbEntity
  8
WYMIARY
 62
3
100
AcDbBlockReference
  2
_CLOSEDFILLED
 10
54.0
 20
0.0
 30
0.0
 41
2.0
 42
2.0
 50
270.0
  0
INSERT
  5
EF
330
E8
100
AcDbEntity
  8
WYMIARY
 62
3
100
AcDbBlockReference
  2
_CLOSEDFILLED
 10
54.0
 20
-25.2
 30
0.0
 41
2.0
 42
2.0
 50
90.0
  0
LINE
  5
F1
330
E8
100
AcDbEntity
  8
0
 62
3
100
AcDbLine
 10
54.0
 20
2.0
 30
0.0
 11
54.0
 21
-27.2
 31
0.0
  0
MTEXT
  5
F2
330
E8
100
AcDbEntity
  8
WYMIARY
 62
3
100
AcDbMText
 10
56.05
 20
-12.6
 30
0.0
 40
2.5
 71
5
  1
25,2
 50
90.0
  0
POINT
  5
F3
330
E8
100
AcDbEntity
  8
Defpoints
100
AcDbPoint
 10
54.0
 20
0.0
 30
0.0
  0
POINT
  5
F4
330
E8
100
AcDbEntity
  8
Defpoints
100
AcDbPoint
 10
70.0
 20
0.0
 30
0.0
  0
POINT
  5
F5
330
E8
100
AcDbEntity
  8
Defpoints
100
AcDbPoint
 10
60.0
 20
-25.2
 30
0.0
  0
ENDBLK
  5
EA
330
E8
100
AcDbEntity
  8
0
100
AcDbBlockEnd
  0
BLOCK
  5
F8
330
F7
100
AcDbEntity
  8
0
100
AcDbBlockBegin
  2
*D12
 70
1
 10
0.0
 20
0.0
 30
0.0
  3
*D12
  1

  0
LINE
  5
FA
330
F7
100
AcDbEntity
  8
0
 62
3
100
AcDbLine
 10
59.2
 20
-25.2
 30
0.0
 11
53.0
 21
-25.2
 31
0.0
  0
LINE
  5
FB
330
F7
100
AcDbEntity
  8
0
 62
3
100
AcDbLine
 10
59.2
 20
-30.0
 30
0.0
 11
53.0
 21
-30.0
 31
0.0
  0
INSERT
  5
FC
330
F7
100
AcDbEntity
  8
WYMIARY
 62
3
100
AcDbBlockReference
  2
_CLOSEDFILLED
 10
54.0
 20
-25.2
 30
0.0
 41
2.0
 42
2.0
 50
270.0
  0
INSERT
  5
FE
330
F7
100
AcDbEntity
  8
WYMIARY
 62
3
100
AcDbBlockReference
  2
_CLOSEDFILLED
 10
54.0
 20
-30.0
 30
0.0
 41
2.0
 42
2.0
 50
90.0
  0
LINE
  5
100
330
F7
100
AcDbEntity
  8
0
 62
3
100
AcDbLine
 10
54.0
 20
-23.2
 30
0.0
 11
54.0
 21
-32.0
 31
0.0
  0
MTEXT
  5
101
330
F7
100
AcDbEntity
  8
WYMIARY
 62
3
100
AcDbMText
 10
57.05
 20
-27.6
 30
0.0
 40
2.5
 71
5
  1
4,8
 50
90.0
  0
POINT
  5
102
330
F7
100
AcDbEntity
  8
Defpoints
100
AcDbPoint
 10
54.0
 20
-25.2
 30
0.0
  0
POINT
  5
103
330
F7
100
AcDbEntity
  8
Defpoints
100
AcDbPoint
 10
60.0
 20
-25.2
 30
0.0
  0
POINT
  5
104
330
F7
100
AcDbEntity
  8
Defpoints
100
AcDbPoint
 10
60.0
 20
-30.0
 30
0.0
  0
ENDBLK
  5
F9
330
F7
100
AcDbEntity
  8
0
100
AcDbBlockEnd
  0
BLOCK
  5
107
330
106
100
AcDbEntity
  8
0
100
AcDbBlockBegin
  2
*D13
 70
1
 10
0.0
 20
0.0
 30
0.0
  3
*D13
  1

  0
LINE
  5
109
330
106
100
AcDbEntity
  8
0
 62
3
100
AcDbLine
 10
66.4
 20
4.4
 30
0.0
 11
66.4
 21
14.0
 31
0.0
  0
LINE
  5
10A
330
106
100
AcDbEntity
  8
0
 62
3
100
AcDbLine
 10
73.6
 20
4.4
 30
0.0
 11
73.6
 21
14.0
 31
0.0
  0
INSERT
  5
10B
330
106
100
AcDbEntity
  8
WYMIARY
 62
3
100
AcDbBlockReference
  2
_CLOSEDFILLED
 10
66.4
 20
13.0
 30
0.0
 41
2.0
 42
2.0
 50
180.0
  0
INSERT
  5
10D
330
106
100
AcDbEntity
  8
WYMIARY
 62
3
100
AcDbBlockReference
  2
_CLOSEDFILLED
 10
73.6
 20
13.0
 30
0.0
 41
2.0
 42
2.0
  0
LINE
  5
10F
330
106
100
AcDbEntity
  8
0
 62
3
100
AcDbLine
 10
68.4
 20
13.0
 30
0.0
 11
71.6
 21
13.0
 31
0.0
  0
MTEXT
  5
110
330
106
100
AcDbEntity
  8
WYMIARY
 62
3
100
AcDbMText
 10
70.0
 20
16.05
 30
0.0
 40
2.5
 71
5
  1
7,2
  0
POINT
  5
111
330
106
100
AcDbEntity
  8
Defpoints
100
AcDbPoint
 10
66.4
 20
13.0
 30
0.0
  0
POINT
  5
112
330
106
100
AcDbEntity
  8
Defpoints
100
AcDbPoint
 10
66.4
 20
3.6
 30
0.0
  0
POINT
  5
113
330
106
100
AcDbEntity
  8
Defpoints
100
AcDbPoint
 10
73.6
 20
3.6
 30
0.0
  0
ENDBLK
  5
108
330
106
100
AcDbEntity
  8
0
100
AcDbBlockEnd
  0
BLOCK
  5
116
330
115
100
AcDbEntity
  8
0
100
AcDbBlockBegin
  2
*D14
 70
1
 10
0.0
 20
0.0
 30
0.0
  3
*D14
  1

  0
LINE
  5
118
330
115
100
AcDbEntity
  8
0
 62
3
100
AcDbLine
 10
70.0
 20
-15.8
 30
0.0
 11
70.0
 21
-18.0
 31
0.0
  0
LINE
  5
119
330
115
100
AcDbEntity
  8
0
 62
3
100
AcDbLine
 10
80.0
 20
-15.8
 30
0.0
 11
80.0
 21
-18.0
 31
0.0
  0
INSERT
  5
11A
330
115
100
AcDbEntity
  8
WYMIARY
 62
3
100
AcDbBlockReference
  2
_CLOSEDFILLED
 10
70.0
 20
-17.0
 30
0.0
 41
2.0
 42
2.0
 50
180.0
  0
INSERT
  5
11C
330
115
100
AcDbEntity
  8
WYMIARY
 62
3
100
AcDbBlockReference
  2
_CLOSEDFILLED
 10
80.0
 20
-17.0
 30
0.0
 41
2.0
 42
2.0
  0
LINE
  5
11E
330
115
100
AcDbEntity
  8
0
 62
3
100
AcDbLine
 10
72.0
 20
-17.0
 30
0.0
 11
78.0
 21
-17.0
 31
0.0
  0
MTEXT
  5
11F
330
115
100
AcDbEntity
  8
WYMIARY
 62
3
100
AcDbMText
 10
75.0
 20
-14.95
 30
0.0
 40
2.5
 71
5
  1
10
  0
POINT
  5
120
330
115
100
AcDbEntity
  8
Defpoints
100
AcDbPoint
 10
70.0
 20
-17.0
 30
0.0
  0
POINT
  5
121
330
115
100
AcDbEntity
  8
Defpoints
100
AcDbPoint
 10
70.0
 20
-15.0
 30
0.0
  0
POINT
  5
122
330
115
100
AcDbEntity
  8
Defpoints
100
AcDbPoint
 10
80.0
 20
-15.0
 30
0.0
  0
ENDBLK
  5
117
330
115
100
AcDbEntity
  8
0
100
AcDbBlockEnd
  0
BLOCK
  5
125
330
124
100
AcDbEntity
  8
0
100
AcDbBlockBegin
  2
*D15
 70
1
 10
0.0
 20
0.0
 30
0.0
  3
*D15
  1

  0
INSERT
  5
127
330
124
100
AcDbEntity
  8
WYMIARY
 62
3
100
AcDbBlockReference
  2
_CLOSEDFILLED
 10
62.928932188134524
 20
7.0710678118654755
 30
0.0
 41
2.0
 42
2.0
 50
315.0
  0
LINE
  5
129
330
124
100
AcDbEntity
  8
0
 62
3
100
AcDbLine
 10
70.0
 20
0.0
 30
0.0
 11
62.928932188134524
 21
7.0710678118654755
 31
0.0
  0
LINE
  5
12A
330
124
100
AcDbEntity
  8
0
 62
3
100
AcDbLine
 10
61.51471862576143
 20
8.485281374238571
 30
0.0
 11
55.64573234191309
 21
14.354267658086917
 31
0.0
  0
MTEXT
  5
12B
330
124
100
AcDbEntity
  8
WYMIARY
 62
3
100
AcDbMText
 10
59.746951672795056
 20
13.152186130069783
 30
0.0
 40
2.5
 71
5
  1
R10
 50
315.0
  0
POINT
  5
12C
330
124
100
AcDbEntity
  8
Defpoints
100
AcDbPoint
 10
70.0
 20
0.0
 30
0.0
  0
POINT
  5
12D
330
124
100
AcDbEntity
  8
Defpoints
100
AcDbPoint
 10
62.928932188134524
 20
7.0710678118654755
 30
0.0
  0
ENDBLK
  5
126
330
124
100
AcDbEntity
  8
0
100
AcDbBlockEnd
  0
BLOCK
  5
130
330
12F
100
AcDbEntity
  8
0
100
AcDbBlockBegin
  2
*D16
 70
1
 10
0.0
 20
0.0
 30
0.0
  3
*D16
  1

  0
INSERT
  5
132
330
12F
100
AcDbEntity
  8
WYMIARY
 62
3
100
AcDbBlockReference
  2
_CLOSEDFILLED
 10
78.82842712474618
 20
-28.82842712474619
 30
0.0
 41
2.0
 42
2.0
 50
134.99999999999991
  0
LINE
  5
134
330
12F
100
AcDbEntity
  8
0
 62
3
100
AcDbLine
 10
76.0
 20
-26.0
 30
0.0
 11
78.82842712474618
 21
-28.82842712474619
 31
0.0
  0
LINE
  5
135
330
12F
100
AcDbEntity
  8
0
 62
3
100
AcDbLine
 10
80.24264068711928
 20
-30.242640687119287
 30
0.0
 11
84.34386001800125
 21
-34.343860018001266
 31
0.0
  0
MTEXT
  5
136
330
12F
100
AcDbEntity
  8
WYMIARY
 62
3
100
AcDbMText
 10
84.02566196646731
 20
-31.126524163602475
 30
0.0
 40
2.5
 71
5
  1
R4
 50
314.99999999999994
  0
POINT
  5
137
330
12F
100
AcDbEntity
  8
Defpoints
100
AcDbPoint
 10
76.0
 20
-26.0
 30
0.0
  0
POINT
  5
138
330
12F
100
AcDbEntity
  8
Defpoints
100
AcDbPoint
 10
78.82842712474618
 20
-28.82842712474619
 30
0.0
  0
ENDBLK
  5
131
330
12F
100
AcDbEntity
  8
0
100
AcDbBlockEnd
  0
BLOCK
  5
143
330
142
100
AcDbEntity
  8
0
100
AcDbBlockBegin
  2
*D17
 70
1
 10
0.0
 20
0.0
 30
0.0
  3
*D17
  1

  0
LINE
  5
145
330
142
100
AcDbEntity
  8
0
 62
3
100
AcDbLine
 10
150.8
 20
10.0
 30
0.0
 11
158.0
 21
10.0
 31
0.0
  0
LINE
  5
146
330
142
100
AcDbEntity
  8
0
 62
3
100
AcDbLine
 10
150.8
 20
-31.5
 30
0.0
 11
158.0
 21
-31.5
 31
0.0
  0
INSERT
  5
147
330
142
100
AcDbEntity
  8
WYMIARY
 62
3
100
AcDbBlockReference
  2
_CLOSEDFILLED
 10
157.0
 20
10.0
 30
0.0
 41
2.0
 42
2.0
 50
270.0
  0
INSERT
  5
149
330
142
100
AcDbEntity
  8
WYMIARY
 62
3
100
AcDbBlockReference
  2
_CLOSEDFILLED
 10
157.0
 20
-31.5
 30
0.0
 41
2.0
 42
2.0
 50
90.0
  0
LINE
  5
14B
330
142
100
AcDbEntity
  8
0
 62
3
100
AcDbLine
 10
157.0
 20
12.0
 30
0.0
 11
157.0
 21
-33.5
 31
0.0
  0
MTEXT
  5
14C
330
142
100
AcDbEntity
  8
WYMIARY
 62
3
100
AcDbMText
 10
159.05
 20
-10.75
 30
0.0
 40
2.5
 71
5
  1
41,5
 50
90.0
  0
POINT
  5
14D
330
142
100
AcDbEntity
  8
Defpoints
100
AcDbPoint
 10
157.0
 20
10.0
 30
0.0
  0
POINT
  5
14E
330
142
100
AcDbEntity
  8
Defpoints
100
AcDbPoint
 10
150.0
 20
10.0
 30
0.0
  0
POINT
  5
14F
330
142
100
AcDbEntity
  8
Defpoints
100
AcDbPoint
 10
150.0
 20
-31.5
 30
0.0
  0
ENDBLK
  5
144
330
142
100
AcDbEntity
  8
0
100
AcDbBlockEnd
  0
BLOCK
  5
152
330
151
100
AcDbEntity
  8
0
100
AcDbBlockBegin
  2
*D18
 70
1
 10
0.0
 20
0.0
 30
0.0
  3
*D18
  1

  0
LINE
  5
154
330
151
100
AcDbEntity
  8
0
 62
3
100
AcDbLine
 10
130.0
 20
-32.3
 30
0.0
 11
130.0
 21
-38.5
 31
0.0
  0
LINE
  5
155
330
151
100
AcDbEntity
  8
0
 62
3
100
AcDbLine
 10
150.0
 20
-32.3
 30
0.0
 11
150.0
 21
-38.5
 31
0.0
  0
INSERT
  5
156
330
151
100
AcDbEntity
  8
WYMIARY
 62
3
100
AcDbBlockReference
  2
_CLOSEDFILLED
 10
130.0
 20
-37.5
 30
0.0
 41
2.0
 42
2.0
 50
180.0
  0
INSERT
  5
158
330
151
100
AcDbEntity
  8
WYMIARY
 62
3
100
AcDbBlockReference
  2
_CLOSEDFILLED
 10
150.0
 20
-37.5
 30
0.0
 41
2.0
 42
2.0
  0
LINE
  5
15A
330
151
100
AcDbEntity
  8
0
 62
3
100
AcDbLine
 10
132.0
 20
-37.5
 30
0.0
 11
148.0
 21
-37.5
 31
0.0
  0
MTEXT
  5
15B
330
151
100
AcDbEntity
  8
WYMIARY
 62
3
100
AcDbMText
 10
140.0
 20
-35.45
 30
0.0
 40
2.5
 71
5
  1
20
  0
POINT
  5
15C
330
151
100
AcDbEntity
  8
Defpoints
100
AcDbPoint
 10
130.0
 20
-37.5
 30
0.0
  0
POINT
  5
15D
330
151
100
AcDbEntity
  8
Defpoints
100
AcDbPoint
 10
130.0
 20
-31.5
 30
0.0
  0
POINT
  5
15E
330
151
100
AcDbEntity
  8
Defpoints
100
AcDbPoint
 10
150.0
 20
-31.5
 30
0.0
  0
ENDBLK
  5
153
330
151
100
AcDbEntity
  8
0
100
AcDbBlockEnd
  0
BLOCK
  5
161
330
160
100
AcDbEntity
  8
0
100
AcDbBlockBegin
  2
*D19
 70
1
 10
0.0
 20
0.0
 30
0.0
  3
*D19
  1

  0
LINE
  5
163
330
160
100
AcDbEntity
  8
0
 62
3
100
AcDbLine
 10
139.2
 20
0.0
 30
0.0
 11
123.0
 21
0.0
 31
0.0
  0
LINE
  5
164
330
160
100
AcDbEntity
  8
0
 62
3
100
AcDbLine
 10
129.2
 20
-26.7
 30
0.0
 11
123.0
 21
-26.7
 31
0.0
  0
INSERT
  5
165
330
160
100
AcDbEntity
  8
WYMIARY
 62
3
100
AcDbBlockReference
  2
_CLOSEDFILLED
 10
124.0
 20
0.0
 30
0.0
 41
2.0
 42
2.0
 50
270.0
  0
INSERT
  5
167
330
160
100
AcDbEntity
  8
WYMIARY
 62
3
100
AcDbBlockReference
  2
_CLOSEDFILLED
 10
124.0
 20
-26.7
 30
0.0
 41
2.0
 42
2.0
 50
90.0
  0
LINE
  5
169
330
160
100
AcDbEntity
  8
0
 62
3
100
AcDbLine
 10
124.0
 20
2.0
 30
0.0
 11
124.0
 21
-28.7
 31
0.0
  0
MTEXT
  5
16A
330
160
100
AcDbEntity
  8
WYMIARY
 62
3
100
AcDbMText
 10
126.05
 20
-13.35
 30
0.0
 40
2.5
 71
5
  1
26,7
 50
90.0
  0
POINT
  5
16B
330
160
100
AcDbEntity
  8
Defpoints
100
AcDbPoint
 10
124.0
 20
0.0
 30
0.0
  0
POINT
  5
16C
330
160
100
AcDbEntity
  8
Defpoints
100
AcDbPoint
 10
140.0
 20
0.0
 30
0.0
  0
POINT
  5
16D
330
160
100
AcDbEntity
  8
Defpoints
100
AcDbPoint
 10
130.0
 20
-26.7
 30
0.0
  0
ENDBLK
  5
162
330
160
100
AcDbEntity
  8
0
100
AcDbBlockEnd
  0
BLOCK
  5
170
330
16F
100
AcDbEntity
  8
0
100
AcDbBlockBegin
  2
*D20
 70
1
 10
0.0
 20
0.0
 30
0.0
  3
*D20
  1

  0
LINE
  5
172
330
16F
100
AcDbEntity
  8
0
 62
3
100
AcDbLine
 10
129.2
 20
-26.7
 30
0.0
 11
123.0
 21
-26.7
 31
0.0
  0
LINE
  5
173
330
16F
100
AcDbEntity
  8
0
 62
3
100
AcDbLine
 10
129.2
 20
-31.5
 30
0.0
 11
123.0
 21
-31.5
 31
0.0
  0
INSERT
  5
174
330
16F
100
AcDbEntity
  8
WYMIARY
 62
3
100
AcDbBlockReference
  2
_CLOSEDFILLED
 10
124.0
 20
-26.7
 30
0.0
 41
2.0
 42
2.0
 50
270.0
  0
INSERT
  5
176
330
16F
100
AcDbEntity
  8
WYMIARY
 62
3
100
AcDbBlockReference
  2
_CLOSEDFILLED
 10
124.0
 20
-31.5
 30
0.0
 41
2.0
 42
2.0
 50
90.0
  0
LINE
  5
178
330
16F
100
AcDbEntity
  8
0
 62
3
100
AcDbLine
 10
124.0
 20
-24.7
 30
0.0
 11
124.0
 21
-33.5
 31
0.0
  0
MTEXT
  5
179
330
16F
100
AcDbEntity
  8
WYMIARY
 62
3
100
AcDbMText
 10
127.05
 20
-29.1
 30
0.0
 40
2.5
 71
5
  1
4,8
 50
90.0
  0
POINT
  5
17A
330
16F
100
AcDbEntity
  8
Defpoints
100
AcDbPoint
 10
124.0
 20
-26.7
 30
0.0
  0
POINT
  5
17B
330
16F
100
AcDbEntity
  8
Defpoints
100
AcDbPoint
 10
130.0
 20
-26.7
 30
0.0
  0
POINT
  5
17C
330
16F
100
AcDbEntity
  8
Defpoints
100
AcDbPoint
 10
130.0
 20
-31.5
 30
0.0
  0
ENDBLK
  5
171
330
16F
100
AcDbEntity
  8
0
100
AcDbBlockEnd
  0
BLOCK
  5
17F
330
17E
100
AcDbEntity
  8
0
100
AcDbBlockBegin
  2
*D21
 70
1
 10
0.0
 20
0.0
 30
0.0
  3
*D21
  1

  0
LINE
  5
181
330
17E
100
AcDbEntity
  8
0
 62
3
100
AcDbLine
 10
136.4
 20
4.4
 30
0.0
 11
136.4
 21
14.0
 31
0.0
  0
LINE
  5
182
330
17E
100
AcDbEntity
  8
0
 62
3
100
AcDbLine
 10
143.6
 20
4.4
 30
0.0
 11
143.6
 21
14.0
 31
0.0
  0
INSERT
  5
183
330
17E
100
AcDbEntity
  8
WYMIARY
 62
3
100
AcDbBlockReference
  2
_CLOSEDFILLED
 10
136.4
 20
13.0
 30
0.0
 41
2.0
 42
2.0
 50
180.0
  0
INSERT
  5
185
330
17E
100
AcDbEntity
  8
WYMIARY
 62
3
100
AcDbBlockReference
  2
_CLOSEDFILLED
 10
143.6
 20
13.0
 30
0.0
 41
2.0
 42
2.0
  0
LINE
  5
187
330
17E
100
AcDbEntity
  8
0
 62
3
100
AcDbLine
 10
138.4
 20
13.0
 30
0.0
 11
141.6
 21
13.0
 31
0.0
  0
MTEXT
  5
188
330
17E
100
AcDbEntity
  8
WYMIARY
 62
3
100
AcDbMText
 10
140.0
 20
16.05
 30
0.0
 40
2.5
 71
5
  1
7,2
  0
POINT
  5
189
330
17E
100
AcDbEntity
  8
Defpoints
100
AcDbPoint
 10
136.4
 20
13.0
 30
0.0
  0
POINT
  5
18A
330
17E
100
AcDbEntity
  8
Defpoints
100
AcDbPoint
 10
136.4
 20
3.6
 30
0.0
  0
POINT
  5
18B
330
17E
100
AcDbEntity
  8
Defpoints
100
AcDbPoint
 10
143.6
 20
3.6
 30
0.0
  0
ENDBLK
  5
180
330
17E
100
AcDbEntity
  8
0
100
AcDbBlockEnd
  0
BLOCK
  5
18E
330
18D
100
AcDbEntity
  8
0
100
AcDbBlockBegin
  2
*D22
 70
1
 10
0.0
 20
0.0
 30
0.0
  3
*D22
  1

  0
LINE
  5
190
330
18D
100
AcDbEntity
  8
0
 62
3
100
AcDbLine
 10
140.0
 20
-15.8
 30
0.0
 11
140.0
 21
-18.0
 31
0.0
  0
LINE
  5
191
330
18D
100
AcDbEntity
  8
0
 62
3
100
AcDbLine
 10
150.0
 20
-15.8
 30
0.0
 11
150.0
 21
-18.0
 31
0.0
  0
INSERT
  5
192
330
18D
100
AcDbEntity
  8
WYMIARY
 62
3
100
AcDbBlockReference
  2
_CLOSEDFILLED
 10
140.0
 20
-17.0
 30
0.0
 41
2.0
 42
2.0
 50
180.0
  0
INSERT
  5
194
330
18D
100
AcDbEntity
  8
WYMIARY
 62
3
100
AcDbBlockReference
  2
_CLOSEDFILLED
 10
150.0
 20
-17.0
 30
0.0
 41
2.0
 42
2.0
  0
LINE
  5
196
330
18D
100
AcDbEntity
  8
0
 62
3
100
AcDbLine
 10
142.0
 20
-17.0
 30
0.0
 11
148.0
 21
-17.0
 31
0.0
  0
MTEXT
  5
197
330
18D
100
AcDbEntity
  8
WYMIARY
 62
3
100
AcDbMText
 10
145.0
 20
-14.95
 30
0.0
 40
2.5
 71
5
  1
10
  0
POINT
  5
198
330
18D
100
AcDbEntity
  8
Defpoints
100
AcDbPoint
 10
140.0
 20
-17.0
 30
0.0
  0
POINT
  5
199
330
18D
100
AcDbEntity
  8
Defpoints
100
AcDbPoint
 10
140.0
 20
-15.0
 30
0.0
  0
POINT
  5
19A
330
18D
100
AcDbEntity
  8
Defpoints
100
AcDbPoint
 10
150.0
 20
-15.0
 30
0.0
  0
ENDBLK
  5
18F
330
18D
100
AcDbEntity
  8
0
100
AcDbBlockEnd
  0
BLOCK
  5
19D
330
19C
100
AcDbEntity
  8
0
100
AcDbBlockBegin
  2
*D23
 70
1
 10
0.0
 20
0.0
 30
0.0
  3
*D23
  1

  0
INSERT
  5
19F
330
19C
100
AcDbEntity
  8
WYMIARY
 62
3
100
AcDbBlockReference
  2
_CLOSEDFILLED
 10
132.92893218813452
 20
7.0710678118654755
 30
0.0
 41
2.0
 42
2.0
 50
315.0
  0
LINE
  5
1A1
330
19C
100
AcDbEntity
  8
0
 62
3
100
AcDbLine
 10
140.0
 20
0.0
 30
0.0
 11
132.92893218813452
 21
7.0710678118654755
 31
0.0
  0
LINE
  5
1A2
330
19C
100
AcDbEntity
  8
0
 62
3
100
AcDbLine
 10
131.51471862576142
 20
8.485281374238571
 30
0.0
 11
125.64573234191307
 21
14.354267658086917
 31
0.0
  0
MTEXT
  5
1A3
330
19C
100
AcDbEntity
  8
WYMIARY
 62
3
100
AcDbMText
 10
129.74695167279506
 20
13.152186130069783
 30
0.0
 40
2.5
 71
5
  1
R10
 50
315.0
  0
POINT
  5
1A4
330
19C
100
AcDbEntity
  8
Defpoints
100
AcDbPoint
 10
140.0
 20
0.0
 30
0.0
  0
POINT
  5
1A5
330
19C
100
AcDbEntity
  8
Defpoints
100
AcDbPoint
 10
132.92893218813452
 20
7.0710678118654755
 30
0.0
  0
ENDBLK
  5
19E
330
19C
100
AcDbEntity
  8
0
100
AcDbBlockEnd
  0
BLOCK
  5
1A8
330
1A7
100
AcDbEntity
  8
0
100
AcDbBlockBegin
  2
*D24
 70
1
 10
0.0
 20
0.0
 30
0.0
  3
*D24
  1

  0
INSERT
  5
1AA
330
1A7
100
AcDbEntity
  8
WYMIARY
 62
3
100
AcDbBlockReference
  2
_CLOSEDFILLED
 10
148.82842712474618
 20
-30.32842712474619
 30
0.0
 41
2.0
 42
2.0
 50
134.99999999999991
  0
LINE
  5
1AC
330
1A7
100
AcDbEntity
  8
0
 62
3
100
AcDbLine
 10
146.0
 20
-27.5
 30
0.0
 11
148.82842712474618
 21
-30.32842712474619
 31
0.0
  0
LINE
  5
1AD
330
1A7
100
AcDbEntity
  8
0
 62
3
100
AcDbLine
 10
150.2426406871193
 20
-31.742640687119287
 30
0.0
 11
154.34386001800127
 21
-35.843860018001266
 31
0.0
  0
MTEXT
  5
1AE
330
1A7
100
AcDbEntity
  8
WYMIARY
 62
3
100
AcDbMText
 10
154.0256619664673
 20
-32.626524163602475
 30
0.0
 40
2.5
 71
5
  1
R4
 50
314.99999999999994
  0
POINT
  5
1AF
330
1A7
100
AcDbEntity
  8
Defpoints
100
AcDbPoint
 10
146.0
 20
-27.5
 30
0.0
  0
POINT
  5
1B0
330
1A7
100
AcDbEntity
  8
Defpoints
100
AcDbPoint
 10
148.82842712474618
 20
-30.32842712474619
 30
0.0
  0
ENDBLK
  5
1A9
330
1A7
100
AcDbEntity
  8
0
100
AcDbBlockEnd
  0
BLOCK
  5
1BB
330
1BA
100
AcDbEntity
  8
0
100
AcDbBlockBegin
  2
*D25
 70
1
 10
0.0
 20
0.0
 30
0.0
  3
*D25
  1

  0
LINE
  5
1BD
330
1BA
100
AcDbEntity
  8
0
 62
3
100
AcDbLine
 10
220.8
 20
10.0
 30
0.0
 11
228.0
 21
10.0
 31
0.0
  0
LINE
  5
1BE
330
1BA
100
AcDbEntity
  8
0
 62
3
100
AcDbLine
 10
220.8
 20
-28.5
 30
0.0
 11
228.0
 21
-28.5
 31
0.0
  0
INSERT
  5
1BF
330
1BA
100
AcDbEntity
  8
WYMIARY
 62
3
100
AcDbBlockReference
  2
_CLOSEDFILLED
 10
227.0
 20
10.0
 30
0.0
 41
2.0
 42
2.0
 50
270.0
  0
INSERT
  5
1C1
330
1BA
100
AcDbEntity
  8
WYMIARY
 62
3
100
AcDbBlockReference
  2
_CLOSEDFILLED
 10
227.0
 20
-28.5
 30
0.0
 41
2.0
 42
2.0
 50
90.0
  0
LINE
  5
1C3
330
1BA
100
AcDbEntity
  8
0
 62
3
100
AcDbLine
 10
227.0
 20
12.0
 30
0.0
 11
227.0
 21
-30.5
 31
0.0
  0
MTEXT
  5
1C4
330
1BA
100
AcDbEntity
  8
WYMIARY
 62
3
100
AcDbMText
 10
229.05
 20
-9.25
 30
0.0
 40
2.5
 71
5
  1
38,5
 50
90.0
  0
POINT
  5
1C5
330
1BA
100
AcDbEntity
  8
Defpoints
100
AcDbPoint
 10
227.0
 20
10.0
 30
0.0
  0
POINT
  5
1C6
330
1BA
100
AcDbEntity
  8
Defpoints
100
AcDbPoint
 10
220.0
 20
10.0
 30
0.0
  0
POINT
  5
1C7
330
1BA
100
AcDbEntity
  8
Defpoints
100
AcDbPoint
 10
220.0
 20
-28.5
 30
0.0
  0
ENDBLK
  5
1BC
330
1BA
100
AcDbEntity
  8
0
100
AcDbBlockEnd
  0
BLOCK
  5
1CA
330
1C9
100
AcDbEntity
  8
0
100
AcDbBlockBegin
  2
*D26
 70
1
 10
0.0
 20
0.0
 30
0.0
  3
*D26
  1

  0
LINE
  5
1CC
330
1C9
100
AcDbEntity
  8
0
 62
3
100
AcDbLine
 10
197.0
 20
-29.3
 30
0.0
 11
197.0
 21
-35.5
 31
0.0
  0
LINE
  5
1CD
330
1C9
100
AcDbEntity
  8
0
 62
3
100
AcDbLine
 10
220.0
 20
-29.3
 30
0.0
 11
220.0
 21
-35.5
 31
0.0
  0
INSERT
  5
1CE
330
1C9
100
AcDbEntity
  8
WYMIARY
 62
3
100
AcDbBlockReference
  2
_CLOSEDFILLED
 10
197.0
 20
-34.5
 30
0.0
 41
2.0
 42
2.0
 50
180.0
  0
INSERT
  5
1D0
330
1C9
100
AcDbEntity
  8
WYMIARY
 62
3
100
AcDbBlockReference
  2
_CLOSEDFILLED
 10
220.0
 20
-34.5
 30
0.0
 41
2.0
 42
2.0
  0
LINE
  5
1D2
330
1C9
100
AcDbEntity
  8
0
 62
3
100
AcDbLine
 10
199.0
 20
-34.5
 30
0.0
 11
218.0
 21
-34.5
 31
0.0
  0
MTEXT
  5
1D3
330
1C9
100
AcDbEntity
  8
WYMIARY
 62
3
100
AcDbMText
 10
208.5
 20
-32.45
 30
0.0
 40
2.5
 71
5
  1
23
  0
POINT
  5
1D4
330
1C9
100
AcDbEntity
  8
Defpoints
100
AcDbPoint
 10
197.0
 20
-34.5
 30
0.0
  0
POINT
  5
1D5
330
1C9
100
AcDbEntity
  8
Defpoints
100
AcDbPoint
 10
197.0
 20
-28.5
 30
0.0
  0
POINT
  5
1D6
330
1C9
100
AcDbEntity
  8
Defpoints
100
AcDbPoint
 10
220.0
 20
-28.5
 30
0.0
  0
ENDBLK
  5
1CB
330
1C9
100
AcDbEntity
  8
0
100
AcDbBlockEnd
  0
BLOCK
  5
1D9
330
1D8
100
AcDbEntity
  8
0
100
AcDbBlockBegin
  2
*D27
 70
1
 10
0.0
 20
0.0
 30
0.0
  3
*D27
  1

  0
LINE
  5
1DB
330
1D8
100
AcDbEntity
  8
0
 62
3
100
AcDbLine
 10
209.2
 20
0.0
 30
0.0
 11
190.0
 21
0.0
 31
0.0
  0
LINE
  5
1DC
330
1D8
100
AcDbEntity
  8
0
 62
3
100
AcDbLine
 10
196.2
 20
-23.7
 30
0.0
 11
190.0
 21
-23.7
 31
0.0
  0
INSERT
  5
1DD
330
1D8
100
AcDbEntity
  8
WYMIARY
 62
3
100
AcDbBlockReference
  2
_CLOSEDFILLED
 10
191.0
 20
0.0
 30
0.0
 41
2.0
 42
2.0
 50
270.0
  0
INSERT
  5
1DF
330
1D8
100
AcDbEntity
  8
WYMIARY
 62
3
100
AcDbBlockReference
  2
_CLOSEDFILLED
 10
191.0
 20
-23.7
 30
0.0
 41
2.0
 42
2.0
 50
90.0
  0
LINE
  5
1E1
330
1D8
100
AcDbEntity
  8
0
 62
3
100
AcDbLine
 10
191.0
 20
2.0
 30
0.0
 11
191.0
 21
-25.7
 31
0.0
  0
MTEXT
  5
1E2
330
1D8
100
AcDbEntity
  8
WYMIARY
 62
3
100
AcDbMText
 10
193.05
 20
-11.85
 30
0.0
 40
2.5
 71
5
  1
23,7
 50
90.0
  0
POINT
  5
1E3
330
1D8
100
AcDbEntity
  8
Defpoints
100
AcDbPoint
 10
191.0
 20
0.0
 30
0.0
  0
POINT
  5
1E4
330
1D8
100
AcDbEntity
  8
Defpoints
100
AcDbPoint
 10
210.0
 20
0.0
 30
0.0
  0
POINT
  5
1E5
330
1D8
100
AcDbEntity
  8
Defpoints
100
AcDbPoint
 10
197.0
 20
-23.7
 30
0.0
  0
ENDBLK
  5
1DA
330
1D8
100
AcDbEntity
  8
0
100
AcDbBlockEnd
  0
BLOCK
  5
1E8
330
1E7
100
AcDbEntity
  8
0
100
AcDbBlockBegin
  2
*D28
 70
1
 10
0.0
 20
0.0
 30
0.0
  3
*D28
  1

  0
LINE
  5
1EA
330
1E7
100
AcDbEntity
  8
0
 62
3
100
AcDbLine
 10
196.2
 20
-23.7
 30
0.0
 11
190.0
 21
-23.7
 31
0.0
  0
LINE
  5
1EB
330
1E7
100
AcDbEntity
  8
0
 62
3
100
AcDbLine
 10
196.2
 20
-28.5
 30
0.0
 11
190.0
 21
-28.5
 31
0.0
  0
INSERT
  5
1EC
330
1E7
100
AcDbEntity
  8
WYMIARY
 62
3
100
AcDbBlockReference
  2
_CLOSEDFILLED
 10
191.0
 20
-23.7
 30
0.0
 41
2.0
 42
2.0
 50
270.0
  0
INSERT
  5
1EE
330
1E7
100
AcDbEntity
  8
WYMIARY
 62
3
100
AcDbBlockReference
  2
_CLOSEDFILLED
 10
191.0
 20
-28.5
 30
0.0
 41
2.0
 42
2.0
 50
90.0
  0
LINE
  5
1F0
330
1E7
100
AcDbEntity
  8
0
 62
3
100
AcDbLine
 10
191.0
 20
-21.7
 30
0.0
 11
191.0
 21
-30.5
 31
0.0
  0
MTEXT
  5
1F1
330
1E7
100
AcDbEntity
  8
WYMIARY
 62
3
100
AcDbMText
 10
194.05
 20
-26.1
 30
0.0
 40
2.5
 71
5
  1
4,8
 50
90.0
  0
POINT
  5
1F2
330
1E7
100
AcDbEntity
  8
Defpoints
100
AcDbPoint
 10
191.0
 20
-23.7
 30
0.0
  0
POINT
  5
1F3
330
1E7
100
AcDbEntity
  8
Defpoints
100
AcDbPoint
 10
197.0
 20
-23.7
 30
0.0
  0
POINT
  5
1F4
330
1E7
100
AcDbEntity
  8
Defpoints
100
AcDbPoint
 10
197.0
 20
-28.5
 30
0.0
  0
ENDBLK
  5
1E9
330
1E7
100
AcDbEntity
  8
0
100
AcDbBlockEnd
  0
BLOCK
  5
1F7
330
1F6
100
AcDbEntity
  8
0
100
AcDbBlockBegin
  2
*D29
 70
1
 10
0.0
 20
0.0
 30
0.0
  3
*D29
  1

  0
LINE
  5
1F9
330
1F6
100
AcDbEntity
  8
0
 62
3
100
AcDbLine
 10
206.4
 20
4.4
 30
0.0
 11
206.4
 21
14.0
 31
0.0
  0
LINE
  5
1FA
330
1F6
100
AcDbEntity
  8
0
 62
3
100
AcDbLine
 10
213.6
 20
4.4
 30
0.0
 11
213.6
 21
14.0
 31
0.0
  0
INSERT
  5
1FB
330
1F6
100
AcDbEntity
  8
WYMIARY
 62
3
100
AcDbBlockReference
  2
_CLOSEDFILLED
 10
206.4
 20
13.0
 30
0.0
 41
2.0
 42
2.0
 50
180.0
  0
INSERT
  5
1FD
330
1F6
100
AcDbEntity
  8
WYMIARY
 62
3
100
AcDbBlockReference
  2
_CLOSEDFILLED
 10
213.6
 20
13.0
 30
0.0
 41
2.0
 42
2.0
  0
LINE
  5
1FF
330
1F6
100
AcDbEntity
  8
0
 62
3
100
AcDbLine
 10
208.4
 20
13.0
 30
0.0
 11
211.6
 21
13.0
 31
0.0
  0
MTEXT
  5
200
330
1F6
100
AcDbEntity
  8
WYMIARY
 62
3
100
AcDbMText
 10
210.0
 20
16.05
 30
0.0
 40
2.5
 71
5
  1
7,2
  0
POINT
  5
201
330
1F6
100
AcDbEntity
  8
Defpoints
100
AcDbPoint
 10
206.4
 20
13.0
 30
0.0
  0
POINT
  5
202
330
1F6
100
AcDbEntity
  8
Defpoints
100
AcDbPoint
 10
206.4
 20
3.6
 30
0.0
  0
POINT
  5
203
330
1F6
100
AcDbEntity
  8
Defpoints
100
AcDbPoint
 10
213.6
 20
3.6
 30
0.0
  0
ENDBLK
  5
1F8
330
1F6
100
AcDbEntity
  8
0
100
AcDbBlockEnd
  0
BLOCK
  5
206
330
205
100
AcDbEntity
  8
0
100
AcDbBlockBegin
  2
*D30
 70
1
 10
0.0
 20
0.0
 30
0.0
  3
*D30
  1

  0
LINE
  5
208
330
205
100
AcDbEntity
  8
0
 62
3
100
AcDbLine
 10
210.0
 20
-15.8
 30
0.0
 11
210.0
 21
-18.0
 31
0.0
  0
LINE
  5
209
330
205
100
AcDbEntity
  8
0
 62
3
100
AcDbLine
 10
220.0
 20
-15.8
 30
0.0
 11
220.0
 21
-18.0
 31
0.0
  0
INSERT
  5
20A
330
205
100
AcDbEntity
  8
WYMIARY
 62
3
100
AcDbBlockReference
  2
_CLOSEDFILLED
 10
210.0
 20
-17.0
 30
0.0
 41
2.0
 42
2.0
 50
180.0
  0
INSERT
  5
20C
330
205
100
AcDbEntity
  8
WYMIARY
 62
3
100
AcDbBlockReference
  2
_CLOSEDFILLED
 10
220.0
 20
-17.0
 30
0.0
 41
2.0
 42
2.0
  0
LINE
  5
20E
330
205
100
AcDbEntity
  8
0
 62
3
100
AcDbLine
 10
212.0
 20
-17.0
 30
0.0
 11
218.0
 21
-17.0
 31
0.0
  0
MTEXT
  5
20F
330
205
100
AcDbEntity
  8
WYMIARY
 62
3
100
AcDbMText
 10
215.0
 20
-14.95
 30
0.0
 40
2.5
 71
5
  1
10
  0
POINT
  5
210
330
205
100
AcDbEntity
  8
Defpoints
100
AcDbPoint
 10
210.0
 20
-17.0
 30
0.0
  0
POINT
  5
211
330
205
100
AcDbEntity
  8
Defpoints
100
AcDbPoint
 10
210.0
 20
-15.0
 30
0.0
  0
POINT
  5
212
330
205
100
AcDbEntity
  8
Defpoints
100
AcDbPoint
 10
220.0
 20
-15.0
 30
0.0
  0
ENDBLK
  5
207
330
205
100
AcDbEntity
  8
0
100
AcDbBlockEnd
  0
BLOCK
  5
215
330
214
100
AcDbEntity
  8
0
100
AcDbBlockBegin
  2
*D31
 70
1
 10
0.0
 20
0.0
 30
0.0
  3
*D31
  1

  0
INSERT
  5
217
330
214
100
AcDbEntity
  8
WYMIARY
 62
3
100
AcDbBlockReference
  2
_CLOSEDFILLED
 10
202.92893218813452
 20
7.0710678118654755
 30
0.0
 41
2.0
 42
2.0
 50
315.0
  0
LINE
  5
219
330
214
100
AcDbEntity
  8
0
 62
3
100
AcDbLine
 10
210.0
 20
0.0
 30
0.0
 11
202.92893218813452
 21
7.0710678118654755
 31
0.0
  0
LINE
  5
21A
330
214
100
AcDbEntity
  8
0
 62
3
100
AcDbLine
 10
201.51471862576142
 20
8.485281374238571
 30
0.0
 11
195.64573234191306
 21
14.354267658086917
 31
0.0
  0
MTEXT
  5
21B
330
214
100
AcDbEntity
  8
WYMIARY
 62
3
100
AcDbMText
 10
199.74695167279506
 20
13.152186130069783
 30
0.0
 40
2.5
 71
5
  1
R10
 50
315.0
  0
POINT
  5
21C
330
214
100
AcDbEntity
  8
Defpoints
100
AcDbPoint
 10
210.0
 20
0.0
 30
0.0
  0
POINT
  5
21D
330
214
100
AcDbEntity
  8
Defpoints
100
AcDbPoint
 10
202.92893218813452
 20
7.0710678118654755
 30
0.0
  0
ENDBLK
  5
216
330
214
100
AcDbEntity
  8
0
100
AcDbBlockEnd
  0
BLOCK
  5
220
330
21F
100
AcDbEntity
  8
0
100
AcDbBlockBegin
  2
*D32
 70
1
 10
0.0
 20
0.0
 30
0.0
  3
*D32
  1

  0
INSERT
  5
222
330
21F
100
AcDbEntity
  8
WYMIARY
 62
3
100
AcDbBlockReference
  2
_CLOSEDFILLED
 10
218.82842712474618
 20
-27.32842712474619
 30
0.0
 41
2.0
 42
2.0
 50
134.99999999999991
  0
LINE
  5
224
330
21F
100
AcDbEntity
  8
0
 62
3
100
AcDbLine
 10
216.0
 20
-24.5
 30
0.0
 11
218.82842712474618
 21
-27.32842712474619
 31
0.0
  0
LINE
  5
225
330
21F
100
AcDbEntity
  8
0
 62
3
100
AcDbLine
 10
220.2426406871193
 20
-28.742640687119287
 30
0.0
 11
224.34386001800127
 21
-32.843860018001266
 31
0.0
  0
MTEXT
  5
226
330
21F
100
AcDbEntity
  8
WYMIARY
 62
3
100
AcDbMText
 10
224.0256619664673
 20
-29.62652416360248
 30
0.0
 40
2.5
 71
5
  1
R4
 50
314.99999999999994
  0
POINT
  5
227
330
21F
100
AcDbEntity
  8
Defpoints
100
AcDbPoint
 10
216.0
 20
-24.5
 30
0.0
  0
POINT
  5
228
330
21F
100
AcDbEntity
  8
Defpoints
100
AcDbPoint
 10
218.82842712474618
 20
-27.32842712474619
 30
0.0
  0
ENDBLK
  5
221
330
21F
100
AcDbEntity
  8
0
100
AcDbBlockEnd
  0
BLOCK
  5
233
330
232
100
AcDbEntity
  8
0
100
AcDbBlockBegin
  2
*D33
 70
1
 10
0.0
 20
0.0
 30
0.0
  3
*D33
  1

  0
LINE
  5
235
330
232
100
AcDbEntity
  8
0
 62
3
100
AcDbLine
 10
290.8
 20
10.0
 30
0.0
 11
298.0
 21
10.0
 31
0.0
  0
LINE
  5
236
330
232
100
AcDbEntity
  8
0
 62
3
100
AcDbLine
 10
290.8
 20
-28.5
 30
0.0
 11
298.0
 21
-28.5
 31
0.0
  0
INSERT
  5
237
330
232
100
AcDbEntity
  8
WYMIARY
 62
3
100
AcDbBlockReference
  2
_CLOSEDFILLED
 10
297.0
 20
10.0
 30
0.0
 41
2.0
 42
2.0
 50
270.0
  0
INSERT
  5
239
330
232
100
AcDbEntity
  8
WYMIARY
 62
3
100
AcDbBlockReference
  2
_CLOSEDFILLED
 10
297.0
 20
-28.5
 30
0.0
 41
2.0
 42
2.0
 50
90.0
  0
LINE
  5
23B
330
232
100
AcDbEntity
  8
0
 62
3
100
AcDbLine
 10
297.0
 20
12.0
 30
0.0
 11
297.0
 21
-30.5
 31
0.0
  0
MTEXT
  5
23C
330
232
100
AcDbEntity
  8
WYMIARY
 62
3
100
AcDbMText
 10
299.05
 20
-9.25
 30
0.0
 40
2.5
 71
5
  1
38,5
 50
90.0
  0
POINT
  5
23D
330
232
100
AcDbEntity
  8
Defpoints
100
AcDbPoint
 10
297.0
 20
10.0
 30
0.0
  0
POINT
  5
23E
330
232
100
AcDbEntity
  8
Defpoints
100
AcDbPoint
 10
290.0
 20
10.0
 30
0.0
  0
POINT
  5
23F
330
232
100
AcDbEntity
  8
Defpoints
100
AcDbPoint
 10
290.0
 20
-28.5
 30
0.0
  0
ENDBLK
  5
234
330
232
100
AcDbEntity
  8
0
100
AcDbBlockEnd
  0
BLOCK
  5
242
330
241
100
AcDbEntity
  8
0
100
AcDbBlockBegin
  2
*D34
 70
1
 10
0.0
 20
0.0
 30
0.0
  3
*D34
  1

  0
LINE
  5
244
330
241
100
AcDbEntity
  8
0
 62
3
100
AcDbLine
 10
265.0
 20
-29.3
 30
0.0
 11
265.0
 21
-35.5
 31
0.0
  0
LINE
  5
245
330
241
100
AcDbEntity
  8
0
 62
3
100
AcDbLine
 10
290.0
 20
-29.3
 30
0.0
 11
290.0
 21
-35.5
 31
0.0
  0
INSERT
  5
246
330
241
100
AcDbEntity
  8
WYMIARY
 62
3
100
AcDbBlockReference
  2
_CLOSEDFILLED
 10
265.0
 20
-34.5
 30
0.0
 41
2.0
 42
2.0
 50
180.0
  0
INSERT
  5
248
330
241
100
AcDbEntity
  8
WYMIARY
 62
3
100
AcDbBlockReference
  2
_CLOSEDFILLED
 10
290.0
 20
-34.5
 30
0.0
 41
2.0
 42
2.0
  0
LINE
  5
24A
330
241
100
AcDbEntity
  8
0
 62
3
100
AcDbLine
 10
267.0
 20
-34.5
 30
0.0
 11
288.0
 21
-34.5
 31
0.0
  0
MTEXT
  5
24B
330
241
100
AcDbEntity
  8
WYMIARY
 62
3
100
AcDbMText
 10
277.5
 20
-32.45
 30
0.0
 40
2.5
 71
5
  1
25
  0
POINT
  5
24C
330
241
100
AcDbEntity
  8
Defpoints
100
AcDbPoint
 10
265.0
 20
-34.5
 30
0.0
  0
POINT
  5
24D
330
241
100
AcDbEntity
  8
Defpoints
100
AcDbPoint
 10
265.0
 20
-28.5
 30
0.0
  0
POINT
  5
24E
330
241
100
AcDbEntity
  8
Defpoints
100
AcDbPoint
 10
290.0
 20
-28.5
 30
0.0
  0
ENDBLK
  5
243
330
241
100
AcDbEntity
  8
0
100
AcDbBlockEnd
  0
BLOCK
  5
251
330
250
100
AcDbEntity
  8
0
100
AcDbBlockBegin
  2
*D35
 70
1
 10
0.0
 20
0.0
 30
0.0
  3
*D35
  1

  0
LINE
  5
253
330
250
100
AcDbEntity
  8
0
 62
3
100
AcDbLine
 10
279.2
 20
0.0
 30
0.0
 11
258.0
 21
0.0
 31
0.0
  0
LINE
  5
254
330
250
100
AcDbEntity
  8
0
 62
3
100
AcDbLine
 10
264.2
 20
-23.7
 30
0.0
 11
258.0
 21
-23.7
 31
0.0
  0
INSERT
  5
255
330
250
100
AcDbEntity
  8
WYMIARY
 62
3
100
AcDbBlockReference
  2
_CLOSEDFILLED
 10
259.0
 20
0.0
 30
0.0
 41
2.0
 42
2.0
 50
270.0
  0
INSERT
  5
257
330
250
100
AcDbEntity
  8
WYMIARY
 62
3
100
AcDbBlockReference
  2
_CLOSEDFILLED
 10
259.0
 20
-23.7
 30
0.0
 41
2.0
 42
2.0
 50
90.0
  0
LINE
  5
259
330
250
100
AcDbEntity
  8
0
 62
3
100
AcDbLine
 10
259.0
 20
2.0
 30
0.0
 11
259.0
 21
-25.7
 31
0.0
  0
MTEXT
  5
25A
330
250
100
AcDbEntity
  8
WYMIARY
 62
3
100
AcDbMText
 10
261.05
 20
-11.85
 30
0.0
 40
2.5
 71
5
  1
23,7
 50
90.0
  0
POINT
  5
25B
330
250
100
AcDbEntity
  8
Defpoints
100
AcDbPoint
 10
259.0
 20
0.0
 30
0.0
  0
POINT
  5
25C
330
250
100
AcDbEntity
  8
Defpoints
100
AcDbPoint
 10
280.0
 20
0.0
 30
0.0
  0
POINT
  5
25D
330
250
100
AcDbEntity
  8
Defpoints
100
AcDbPoint
 10
265.0
 20
-23.7
 30
0.0
  0
ENDBLK
  5
252
330
250
100
AcDbEntity
  8
0
100
AcDbBlockEnd
  0
BLOCK
  5
260
330
25F
100
AcDbEntity
  8
0
100
AcDbBlockBegin
  2
*D36
 70
1
 10
0.0
 20
0.0
 30
0.0
  3
*D36
  1

  0
LINE
  5
262
330
25F
100
AcDbEntity
  8
0
 62
3
100
AcDbLine
 10
264.2
 20
-23.7
 30
0.0
 11
258.0
 21
-23.7
 31
0.0
  0
LINE
  5
263
330
25F
100
AcDbEntity
  8
0
 62
3
100
AcDbLine
 10
264.2
 20
-28.5
 30
0.0
 11
258.0
 21
-28.5
 31
0.0
  0
INSERT
  5
264
330
25F
100
AcDbEntity
  8
WYMIARY
 62
3
100
AcDbBlockReference
  2
_CLOSEDFILLED
 10
259.0
 20
-23.7
 30
0.0
 41
2.0
 42
2.0
 50
270.0
  0
INSERT
  5
266
330
25F
100
AcDbEntity
  8
WYMIARY
 62
3
100
AcDbBlockReference
  2
_CLOSEDFILLED
 10
259.0
 20
-28.5
 30
0.0
 41
2.0
 42
2.0
 50
90.0
  0
LINE
  5
268
330
25F
100
AcDbEntity
  8
0
 62
3
100
AcDbLine
 10
259.0
 20
-21.7
 30
0.0
 11
259.0
 21
-30.5
 31
0.0
  0
MTEXT
  5
269
330
25F
100
AcDbEntity
  8
WYMIARY
 62
3
100
AcDbMText
 10
262.05
 20
-26.1
 30
0.0
 40
2.5
 71
5
  1
4,8
 50
90.0
  0
POINT
  5
26A
330
25F
100
AcDbEntity
  8
Defpoints
100
AcDbPoint
 10
259.0
 20
-23.7
 30
0.0
  0
POINT
  5
26B
330
25F
100
AcDbEntity
  8
Defpoints
100
AcDbPoint
 10
265.0
 20
-23.7
 30
0.0
  0
POINT
  5
26C
330
25F
100
AcDbEntity
  8
Defpoints
100
AcDbPoint
 10
265.0
 20
-28.5
 30
0.0
  0
ENDBLK
  5
261
330
25F
100
AcDbEntity
  8
0
100
AcDbBlockEnd
  0
BLOCK
  5
26F
330
26E
100
AcDbEntity
  8
0
100
AcDbBlockBegin
  2
*D37
 70
1
 10
0.0
 20
0.0
 30
0.0
  3
*D37
  1

  0
LINE
  5
271
330
26E
100
AcDbEntity
  8
0
 62
3
100
AcDbLine
 10
276.4
 20
4.4
 30
0.0
 11
276.4
 21
14.0
 31
0.0
  0
LINE
  5
272
330
26E
100
AcDbEntity
  8
0
 62
3
100
AcDbLine
 10
283.6
 20
4.4
 30
0.0
 11
283.6
 21
14.0
 31
0.0
  0
INSERT
  5
273
330
26E
100
AcDbEntity
  8
WYMIARY
 62
3
100
AcDbBlockReference
  2
_CLOSEDFILLED
 10
276.4
 20
13.0
 30
0.0
 41
2.0
 42
2.0
 50
180.0
  0
INSERT
  5
275
330
26E
100
AcDbEntity
  8
WYMIARY
 62
3
100
AcDbBlockReference
  2
_CLOSEDFILLED
 10
283.6
 20
13.0
 30
0.0
 41
2.0
 42
2.0
  0
LINE
  5
277
330
26E
100
AcDbEntity
  8
0
 62
3
100
AcDbLine
 10
278.4
 20
13.0
 30
0.0
 11
281.6
 21
13.0
 31
0.0
  0
MTEXT
  5
278
330
26E
100
AcDbEntity
  8
WYMIARY
 62
3
100
AcDbMText
 10
280.0
 20
16.05
 30
0.0
 40
2.5
 71
5
  1
7,2
  0
POINT
  5
279
330
26E
100
AcDbEntity
  8
Defpoints
100
AcDbPoint
 10
276.4
 20
13.0
 30
0.0
  0
POINT
  5
27A
330
26E
100
AcDbEntity
  8
Defpoints
100
AcDbPoint
 10
276.4
 20
3.6
 30
0.0
  0
POINT
  5
27B
330
26E
100
AcDbEntity
  8
Defpoints
100
AcDbPoint
 10
283.6
 20
3.6
 30
0.0
  0
ENDBLK
  5
270
330
26E
100
AcDbEntity
  8
0
100
AcDbBlockEnd
  0
BLOCK
  5
27E
330
27D
100
AcDbEntity
  8
0
100
AcDbBlockBegin
  2
*D38
 70
1
 10
0.0
 20
0.0
 30
0.0
  3
*D38
  1

  0
LINE
  5
280
330
27D
100
AcDbEntity
  8
0
 62
3
100
AcDbLine
 10
280.0
 20
-15.8
 30
0.0
 11
280.0
 21
-18.0
 31
0.0
  0
LINE
  5
281
330
27D
100
AcDbEntity
  8
0
 62
3
100
AcDbLine
 10
290.0
 20
-15.8
 30
0.0
 11
290.0
 21
-18.0
 31
0.0
  0
INSERT
  5
282
330
27D
100
AcDbEntity
  8
WYMIARY
 62
3
100
AcDbBlockReference
  2
_CLOSEDFILLED
 10
280.0
 20
-17.0
 30
0.0
 41
2.0
 42
2.0
 50
180.0
  0
INSERT
  5
284
330
27D
100
AcDbEntity
  8
WYMIARY
 62
3
100
AcDbBlockReference
  2
_CLOSEDFILLED
 10
290.0
 20
-17.0
 30
0.0
 41
2.0
 42
2.0
  0
LINE
  5
286
330
27D
100
AcDbEntity
  8
0
 62
3
100
AcDbLine
 10
282.0
 20
-17.0
 30
0.0
 11
288.0
 21
-17.0
 31
0.0
  0
MTEXT
  5
287
330
27D
100
AcDbEntity
  8
WYMIARY
 62
3
100
AcDbMText
 10
285.0
 20
-14.95
 30
0.0
 40
2.5
 71
5
  1
10
  0
POINT
  5
288
330
27D
100
AcDbEntity
  8
Defpoints
100
AcDbPoint
 10
280.0
 20
-17.0
 30
0.0
  0
POINT
  5
289
330
27D
100
AcDbEntity
  8
Defpoints
100
AcDbPoint
 10
280.0
 20
-15.0
 30
0.0
  0
POINT
  5
28A
330
27D
100
AcDbEntity
  8
Defpoints
100
AcDbPoint
 10
290.0
 20
-15.0
 30
0.0
  0
ENDBLK
  5
27F
330
27D
100
AcDbEntity
  8
0
100
AcDbBlockEnd
  0
BLOCK
  5
28D
330
28C
100
AcDbEntity
  8
0
100
AcDbBlockBegin
  2
*D39
 70
1
 10
0.0
 20
0.0
 30
0.0
  3
*D39
  1

  0
INSERT
  5
28F
330
28C
100
AcDbEntity
  8
WYMIARY
 62
3
100
AcDbBlockReference
  2
_CLOSEDFILLED
 10
272.9289321881345
 20
7.0710678118654755
 30
0.0
 41
2.0
 42
2.0
 50
315.0
  0
LINE
  5
291
330
28C
100
AcDbEntity
  8
0
 62
3
100
AcDbLine
 10
280.0
 20
0.0
 30
0.0
 11
272.9289321881345
 21
7.0710678118654755
 31
0.0
  0
LINE
  5
292
330
28C
100
AcDbEntity
  8
0
 62
3
100
AcDbLine
 10
271.5147186257614
 20
8.485281374238571
 30
0.0
 11
265.64573234191306
 21
14.354267658086917
 31
0.0
  0
MTEXT
  5
293
330
28C
100
AcDbEntity
  8
WYMIARY
 62
3
100
AcDbMText
 10
269.7469516727951
 20
13.152186130069783
 30
0.0
 40
2.5
 71
5
  1
R10
 50
315.0
  0
POINT
  5
294
330
28C
100
AcDbEntity
  8
Defpoints
100
AcDbPoint
 10
280.0
 20
0.0
 30
0.0
  0
POINT
  5
295
330
28C
100
AcDbEntity
  8
Defpoints
100
AcDbPoint
 10
272.9289321881345
 20
7.0710678118654755
 30
0.0
  0
ENDBLK
  5
28E
330
28C
100
AcDbEntity
  8
0
100
AcDbBlockEnd
  0
BLOCK
  5
298
330
297
100
AcDbEntity
  8
0
100
AcDbBlockBegin
  2
*D40
 70
1
 10
0.0
 20
0.0
 30
0.0
  3
*D40
  1

  0
INSERT
  5
29A
330
297
100
AcDbEntity
  8
WYMIARY
 62
3
100
AcDbBlockReference
  2
_CLOSEDFILLED
 10
288.8284271247462
 20
-27.32842712474619
 30
0.0
 41
2.0
 42
2.0
 50
135.00000000000023
  0
LINE
  5
29C
330
297
100
AcDbEntity
  8
0
 62
3
100
AcDbLine
 10
286.0
 20
-24.5
 30
0.0
 11
288.8284271247462
 21
-27.32842712474619
 31
0.0
  0
LINE
  5
29D
330
297
100
AcDbEntity
  8
0
 62
3
100
AcDbLine
 10
290.2426406871193
 20
-28.74264068711928
 30
0.0
 11
294.3438600180013
 21
-32.84386001800124
 31
0.0
  0
MTEXT
  5
29E
330
297
100
AcDbEntity
  8
WYMIARY
 62
3
100
AcDbMText
 10
294.02566196646734
 20
-29.62652416360245
 30
0.0
 40
2.5
 71
5
  1
R4
 50
315.0000000000002
  0
POINT
  5
29F
330
297
100
AcDbEntity
  8
Defpoints
100
AcDbPoint
 10
286.0
 20
-24.5
 30
0.0
  0
POINT
  5
2A0
330
297
100
AcDbEntity
  8
Defpoints
100
AcDbPoint
 10
288.8284271247462
 20
-27.32842712474619
 30
0.0
  0
ENDBLK
  5
299
330
297
100
AcDbEntity
  8
0
100
AcDbBlockEnd
  0
BLOCK
  5
2AB
330
2AA
100
AcDbEntity
  8
0
100
AcDbBlockBegin
  2
*D41
 70
1
 10
0.0
 20
0.0
 30
0.0
  3
*D41
  1

  0
LINE
  5
2AD
330
2AA
100
AcDbEntity
  8
0
 62
3
100
AcDbLine
 10
360.8
 20
10.0
 30
0.0
 11
368.0
 21
10.0
 31
0.0
  0
LINE
  5
2AE
330
2AA
100
AcDbEntity
  8
0
 62
3
100
AcDbLine
 10
360.8
 20
-30.0
 30
0.0
 11
368.0
 21
-30.0
 31
0.0
  0
INSERT
  5
2AF
330
2AA
100
AcDbEntity
  8
WYMIARY
 62
3
100
AcDbBlockReference
  2
_CLOSEDFILLED
 10
367.0
 20
10.0
 30
0.0
 41
2.0
 42
2.0
 50
270.0
  0
INSERT
  5
2B1
330
2AA
100
AcDbEntity
  8
WYMIARY
 62
3
100
AcDbBlockReference
  2
_CLOSEDFILLED
 10
367.0
 20
-30.0
 30
0.0
 41
2.0
 42
2.0
 50
90.0
  0
LINE
  5
2B3
330
2AA
100
AcDbEntity
  8
0
 62
3
100
AcDbLine
 10
367.0
 20
12.0
 30
0.0
 11
367.0
 21
-32.0
 31
0.0
  0
MTEXT
  5
2B4
330
2AA
100
AcDbEntity
  8
WYMIARY
 62
3
100
AcDbMText
 10
369.05
 20
-10.0
 30
0.0
 40
2.5
 71
5
  1
40
 50
90.0
  0
POINT
  5
2B5
330
2AA
100
AcDbEntity
  8
Defpoints
100
AcDbPoint
 10
367.0
 20
10.0
 30
0.0
  0
POINT
  5
2B6
330
2AA
100
AcDbEntity
  8
Defpoints
100
AcDbPoint
 10
360.0
 20
10.0
 30
0.0
  0
POINT
  5
2B7
330
2AA
100
AcDbEntity
  8
Defpoints
100
AcDbPoint
 10
360.0
 20
-30.0
 30
0.0
  0
ENDBLK
  5
2AC
330
2AA
100
AcDbEntity
  8
0
100
AcDbBlockEnd
  0
BLOCK
  5
2BA
330
2B9
100
AcDbEntity
  8
0
100
AcDbBlockBegin
  2
*D42
 70
1
 10
0.0
 20
0.0
 30
0.0
  3
*D42
  1

  0
LINE
  5
2BC
330
2B9
100
AcDbEntity
  8
0
 62
3
100
AcDbLine
 10
337.0
 20
-30.8
 30
0.0
 11
337.0
 21
-37.0
 31
0.0
  0
LINE
  5
2BD
330
2B9
100
AcDbEntity
  8
0
 62
3
100
AcDbLine
 10
360.0
 20
-30.8
 30
0.0
 11
360.0
 21
-37.0
 31
0.0
  0
INSERT
  5
2BE
330
2B9
100
AcDbEntity
  8
WYMIARY
 62
3
100
AcDbBlockReference
  2
_CLOSEDFILLED
 10
337.0
 20
-36.0
 30
0.0
 41
2.0
 42
2.0
 50
180.0
  0
INSERT
  5
2C0
330
2B9
100
AcDbEntity
  8
WYMIARY
 62
3
100
AcDbBlockReference
  2
_CLOSEDFILLED
 10
360.0
 20
-36.0
 30
0.0
 41
2.0
 42
2.0
  0
LINE
  5
2C2
330
2B9
100
AcDbEntity
  8
0
 62
3
100
AcDbLine
 10
339.0
 20
-36.0
 30
0.0
 11
358.0
 21
-36.0
 31
0.0
  0
MTEXT
  5
2C3
330
2B9
100
AcDbEntity
  8
WYMIARY
 62
3
100
AcDbMText
 10
348.5
 20
-33.95
 30
0.0
 40
2.5
 71
5
  1
23
  0
POINT
  5
2C4
330
2B9
100
AcDbEntity
  8
Defpoints
100
AcDbPoint
 10
337.0
 20
-36.0
 30
0.0
  0
POINT
  5
2C5
330
2B9
100
AcDbEntity
  8
Defpoints
100
AcDbPoint
 10
337.0
 20
-30.0
 30
0.0
  0
POINT
  5
2C6
330
2B9
100
AcDbEntity
  8
Defpoints
100
AcDbPoint
 10
360.0
 20
-30.0
 30
0.0
  0
ENDBLK
  5
2BB
330
2B9
100
AcDbEntity
  8
0
100
AcDbBlockEnd
  0
BLOCK
  5
2C9
330
2C8
100
AcDbEntity
  8
0
100
AcDbBlockBegin
  2
*D43
 70
1
 10
0.0
 20
0.0
 30
0.0
  3
*D43
  1

  0
LINE
  5
2CB
330
2C8
100
AcDbEntity
  8
0
 62
3
100
AcDbLine
 10
349.2
 20
0.0
 30
0.0
 11
330.0
 21
0.0
 31
0.0
  0
LINE
  5
2CC
330
2C8
100
AcDbEntity
  8
0
 62
3
100
AcDbLine
 10
336.2
 20
-25.2
 30
0.0
 11
330.0
 21
-25.2
 31
0.0
  0
INSERT
  5
2CD
330
2C8
100
AcDbEntity
  8
WYMIARY
 62
3
100
AcDbBlockReference
  2
_CLOSEDFILLED
 10
331.0
 20
0.0
 30
0.0
 41
2.0
 42
2.0
 50
270.0
  0
INSERT
  5
2CF
330
2C8
100
AcDbEntity
  8
WYMIARY
 62
3
100
AcDbBlockReference
  2
_CLOSEDFILLED
 10
331.0
 20
-25.2
 30
0.0
 41
2.0
 42
2.0
 50
90.0
  0
LINE
  5
2D1
330
2C8
100
AcDbEntity
  8
0
 62
3
100
AcDbLine
 10
331.0
 20
2.0
 30
0.0
 11
331.0
 21
-27.2
 31
0.0
  0
MTEXT
  5
2D2
330
2C8
100
AcDbEntity
  8
WYMIARY
 62
3
100
AcDbMText
 10
333.05
 20
-12.6
 30
0.0
 40
2.5
 71
5
  1
25,2
 50
90.0
  0
POINT
  5
2D3
330
2C8
100
AcDbEntity
  8
Defpoints
100
AcDbPoint
 10
331.0
 20
0.0
 30
0.0
  0
POINT
  5
2D4
330
2C8
100
AcDbEntity
  8
Defpoints
100
AcDbPoint
 10
350.0
 20
0.0
 30
0.0
  0
POINT
  5
2D5
330
2C8
100
AcDbEntity
  8
Defpoints
100
AcDbPoint
 10
337.0
 20
-25.2
 30
0.0
  0
ENDBLK
  5
2CA
330
2C8
100
AcDbEntity
  8
0
100
AcDbBlockEnd
  0
BLOCK
  5
2D8
330
2D7
100
AcDbEntity
  8
0
100
AcDbBlockBegin
  2
*D44
 70
1
 10
0.0
 20
0.0
 30
0.0
  3
*D44
  1

  0
LINE
  5
2DA
330
2D7
100
AcDbEntity
  8
0
 62
3
100
AcDbLine
 10
336.2
 20
-25.2
 30
0.0
 11
330.0
 21
-25.2
 31
0.0
  0
LINE
  5
2DB
330
2D7
100
AcDbEntity
  8
0
 62
3
100
AcDbLine
 10
336.2
 20
-30.0
 30
0.0
 11
330.0
 21
-30.0
 31
0.0
  0
INSERT
  5
2DC
330
2D7
100
AcDbEntity
  8
WYMIARY
 62
3
100
AcDbBlockReference
  2
_CLOSEDFILLED
 10
331.0
 20
-25.2
 30
0.0
 41
2.0
 42
2.0
 50
270.0
  0
INSERT
  5
2DE
330
2D7
100
AcDbEntity
  8
WYMIARY
 62
3
100
AcDbBlockReference
  2
_CLOSEDFILLED
 10
331.0
 20
-30.0
 30
0.0
 41
2.0
 42
2.0
 50
90.0
  0
LINE
  5
2E0
330
2D7
100
AcDbEntity
  8
0
 62
3
100
AcDbLine
 10
331.0
 20
-23.2
 30
0.0
 11
331.0
 21
-32.0
 31
0.0
  0
MTEXT
  5
2E1
330
2D7
100
AcDbEntity
  8
WYMIARY
 62
3
100
AcDbMText
 10
334.05
 20
-27.6
 30
0.0
 40
2.5
 71
5
  1
4,8
 50
90.0
  0
POINT
  5
2E2
330
2D7
100
AcDbEntity
  8
Defpoints
100
AcDbPoint
 10
331.0
 20
-25.2
 30
0.0
  0
POINT
  5
2E3
330
2D7
100
AcDbEntity
  8
Defpoints
100
AcDbPoint
 10
337.0
 20
-25.2
 30
0.0
  0
POINT
  5
2E4
330
2D7
100
AcDbEntity
  8
Defpoints
100
AcDbPoint
 10
337.0
 20
-30.0
 30
0.0
  0
ENDBLK
  5
2D9
330
2D7
100
AcDbEntity
  8
0
100
AcDbBlockEnd
  0
BLOCK
  5
2E7
330
2E6
100
AcDbEntity
  8
0
100
AcDbBlockBegin
  2
*D45
 70
1
 10
0.0
 20
0.0
 30
0.0
  3
*D45
  1

  0
LINE
  5
2E9
330
2E6
100
AcDbEntity
  8
0
 62
3
100
AcDbLine
 10
346.4
 20
4.4
 30
0.0
 11
346.4
 21
14.0
 31
0.0
  0
LINE
  5
2EA
330
2E6
100
AcDbEntity
  8
0
 62
3
100
AcDbLine
 10
353.6
 20
4.4
 30
0.0
 11
353.6
 21
14.0
 31
0.0
  0
INSERT
  5
2EB
330
2E6
100
AcDbEntity
  8
WYMIARY
 62
3
100
AcDbBlockReference
  2
_CLOSEDFILLED
 10
346.4
 20
13.0
 30
0.0
 41
2.0
 42
2.0
 50
180.0
  0
INSERT
  5
2ED
330
2E6
100
AcDbEntity
  8
WYMIARY
 62
3
100
AcDbBlockReference
  2
_CLOSEDFILLED
 10
353.6
 20
13.0
 30
0.0
 41
2.0
 42
2.0
  0
LINE
  5
2EF
330
2E6
100
AcDbEntity
  8
0
 62
3
100
AcDbLine
 10
348.4
 20
13.0
 30
0.0
 11
351.6
 21
13.0
 31
0.0
  0
MTEXT
  5
2F0
330
2E6
100
AcDbEntity
  8
WYMIARY
 62
3
100
AcDbMText
 10
350.0
 20
16.05
 30
0.0
 40
2.5
 71
5
  1
7,2
  0
POINT
  5
2F1
330
2E6
100
AcDbEntity
  8
Defpoints
100
AcDbPoint
 10
346.4
 20
13.0
 30
0.0
  0
POINT
  5
2F2
330
2E6
100
AcDbEntity
  8
Defpoints
100
AcDbPoint
 10
346.4
 20
3.6
 30
0.0
  0
POINT
  5
2F3
330
2E6
100
AcDbEntity
  8
Defpoints
100
AcDbPoint
 10
353.6
 20
3.6
 30
0.0
  0
ENDBLK
  5
2E8
330
2E6
100
AcDbEntity
  8
0
100
AcDbBlockEnd
  0
BLOCK
  5
2F6
330
2F5
100
AcDbEntity
  8
0
100
AcDbBlockBegin
  2
*D46
 70
1
 10
0.0
 20
0.0
 30
0.0
  3
*D46
  1

  0
LINE
  5
2F8
330
2F5
100
AcDbEntity
  8
0
 62
3
100
AcDbLine
 10
350.0
 20
-15.8
 30
0.0
 11
350.0
 21
-18.0
 31
0.0
  0
LINE
  5
2F9
330
2F5
100
AcDbEntity
  8
0
 62
3
100
AcDbLine
 10
360.0
 20
-15.8
 30
0.0
 11
360.0
 21
-18.0
 31
0.0
  0
INSERT
  5
2FA
330
2F5
100
AcDbEntity
  8
WYMIARY
 62
3
100
AcDbBlockReference
  2
_CLOSEDFILLED
 10
350.0
 20
-17.0
 30
0.0
 41
2.0
 42
2.0
 50
180.0
  0
INSERT
  5
2FC
330
2F5
100
AcDbEntity
  8
WYMIARY
 62
3
100
AcDbBlockReference
  2
_CLOSEDFILLED
 10
360.0
 20
-17.0
 30
0.0
 41
2.0
 42
2.0
  0
LINE
  5
2FE
330
2F5
100
AcDbEntity
  8
0
 62
3
100
AcDbLine
 10
352.0
 20
-17.0
 30
0.0
 11
358.0
 21
-17.0
 31
0.0
  0
MTEXT
  5
2FF
330
2F5
100
AcDbEntity
  8
WYMIARY
 62
3
100
AcDbMText
 10
355.0
 20
-14.95
 30
0.0
 40
2.5
 71
5
  1
10
  0
POINT
  5
300
330
2F5
100
AcDbEntity
  8
Defpoints
100
AcDbPoint
 10
350.0
 20
-17.0
 30
0.0
  0
POINT
  5
301
330
2F5
100
AcDbEntity
  8
Defpoints
100
AcDbPoint
 10
350.0
 20
-15.0
 30
0.0
  0
POINT
  5
302
330
2F5
100
AcDbEntity
  8
Defpoints
100
AcDbPoint
 10
360.0
 20
-15.0
 30
0.0
  0
ENDBLK
  5
2F7
330
2F5
100
AcDbEntity
  8
0
100
AcDbBlockEnd
  0
BLOCK
  5
305
330
304
100
AcDbEntity
  8
0
100
AcDbBlockBegin
  2
*D47
 70
1
 10
0.0
 20
0.0
 30
0.0
  3
*D47
  1

  0
INSERT
  5
307
330
304
100
AcDbEntity
  8
WYMIARY
 62
3
100
AcDbBlockReference
  2
_CLOSEDFILLED
 10
342.9289321881345
 20
7.0710678118654755
 30
0.0
 41
2.0
 42
2.0
 50
315.0
  0
LINE
  5
309
330
304
100
AcDbEntity
  8
0
 62
3
100
AcDbLine
 10
350.0
 20
0.0
 30
0.0
 11
342.9289321881345
 21
7.0710678118654755
 31
0.0
  0
LINE
  5
30A
330
304
100
AcDbEntity
  8
0
 62
3
100
AcDbLine
 10
341.5147186257614
 20
8.485281374238571
 30
0.0
 11
335.64573234191306
 21
14.354267658086917
 31
0.0
  0
MTEXT
  5
30B
330
304
100
AcDbEntity
  8
WYMIARY
 62
3
100
AcDbMText
 10
339.7469516727951
 20
13.152186130069783
 30
0.0
 40
2.5
 71
5
  1
R10
 50
315.0
  0
POINT
  5
30C
330
304
100
AcDbEntity
  8
Defpoints
100
AcDbPoint
 10
350.0
 20
0.0
 30
0.0
  0
POINT
  5
30D
330
304
100
AcDbEntity
  8
Defpoints
100
AcDbPoint
 10
342.9289321881345
 20
7.0710678118654755
 30
0.0
  0
ENDBLK
  5
306
330
304
100
AcDbEntity
  8
0
100
AcDbBlockEnd
  0
BLOCK
  5
310
330
30F
100
AcDbEntity
  8
0
100
AcDbBlockBegin
  2
*D48
 70
1
 10
0.0
 20
0.0
 30
0.0
  3
*D48
  1

  0
INSERT
  5
312
330
30F
100
AcDbEntity
  8
WYMIARY
 62
3
100
AcDbBlockReference
  2
_CLOSEDFILLED
 10
358.8284271247462
 20
-28.82842712474619
 30
0.0
 41
2.0
 42
2.0
 50
135.00000000000023
  0
LINE
  5
314
330
30F
100
AcDbEntity
  8
0
 62
3
100
AcDbLine
 10
356.0
 20
-26.0
 30
0.0
 11
358.8284271247462
 21
-28.82842712474619
 31
0.0
  0
LINE
  5
315
330
30F
100
AcDbEntity
  8
0
 62
3
100
AcDbLine
 10
360.2426406871193
 20
-30.24264068711928
 30
0.0
 11
364.3438600180013
 21
-34.34386001800124
 31
0.0
  0
MTEXT
  5
316
330
30F
100
AcDbEntity
  8
WYMIARY
 62
3
100
AcDbMText
 10
364.02566196646734
 20
-31.126524163602454
 30
0.0
 40
2.5
 71
5
  1
R4
 50
315.0000000000002
  0
POINT
  5
317
330
30F
100
AcDbEntity
  8
Defpoints
100
AcDbPoint
 10
356.0
 20
-26.0
 30
0.0
  0
POINT
  5
318
330
30F
100
AcDbEntity
  8
Defpoints
100
AcDbPoint
 10
358.8284271247462
 20
-28.82842712474619
 30
0.0
  0
ENDBLK
  5
311
330
30F
100
AcDbEntity
  8
0
100
AcDbBlockEnd
  0
ENDSEC
  0
SECTION
  2
ENTITIES
  0
LWPOLYLINE
  5
48
330
17
100
AcDbEntity
  8
KONTUR
100
AcDbPolyline
 90
12
 70
1
 10
10.0
 20
0.0
 10
10.0
 20
-24.5
 42
-0.41421356237309503
 10
6.0
 20
-28.5
 10
-9.0
 20
-28.5
 42
-0.41421356237309503
 10
-10.0
 20
-27.5
 10
-10.0
 20
-24.7
 42
-0.41421356237309503
 10
-9.0
 20
-23.7
 42
0.1467142857142857
 10
5.0
 20
-23.7
 10
5.0
 20
-22.0
 10
1.0
 20
-22.0
 42
-0.41421356237309503
 10
0.0
 20
-21.0
 10
0.0
 20
-10.0
 42
-2.414213562373095
  0
LWPOLYLINE
  5
49
330
17
100
AcDbEntity
  8
OTWOR
100
AcDbPolyline
 90
4
 70
1
 10
-3.6
 20
-3.6
 10
3.6
 20
-3.6
 10
3.6
 20
3.6
 10
-3.6
 20
3.6
  0
LINE
  5
4A
330
17
100
AcDbEntity
  8
OSIE
100
AcDbLine
 10
-14.0
 20
0.0
 30
0.0
 11
14.0
 21
0.0
 31
0.0
  0
LINE
  5
4B
330
17
100
AcDbEntity
  8
OSIE
100
AcDbLine
 10
0.0
 20
14.0
 30
0.0
 11
0.0
 21
-33.0
 31
0.0
  0
CIRCLE
  5
4C
330
17
100
AcDbEntity
  8
ZAKRES_OBROTU
100
AcDbCircle
 10
0.0
 20
0.0
 30
0.0
 40
29.935438730617637
  0
DIMENSION
  5
4D
330
17
100
AcDbEntity
  8
WYMIARY
100
AcDbDimension
  2
*D1
  3
HAK
 10
17.0
 20
10.0
 30
0.0
 11
19.05
 21
-9.25
 31
0.0
 70
32
 71
5
  1
<>
100
AcDbAlignedDimension
 13
10.0
 23
10.0
 33
0.0
 14
10.0
 24
-28.5
 34
0.0
 50
90.0
100
AcDbRotatedDimension
  0
DIMENSION
  5
60
330
17
100
AcDbEntity
  8
WYMIARY
100
AcDbDimension
  2
*D2
  3
HAK
 10
-10.0
 20
-34.5
 30
0.0
 11
0.0
 21
-32.45
 31
0.0
 70
32
 71
5
  1
<>
100
AcDbAlignedDimension
 13
-10.0
 23
-28.5
 33
0.0
 14
10.0
 24
-28.5
 34
0.0
 50
0.0
100
AcDbRotatedDimension
  0
DIMENSION
  5
6F
330
17
100
AcDbEntity
  8
WYMIARY
100
AcDbDimension
  2
*D3
  3
HAK
 10
-16.0
 20
0.0
 30
0.0
 11
-13.95
 21
-11.85
 31
0.0
 70
32
 71
5
  1
<>
100
AcDbAlignedDimension
 13
0.0
 23
0.0
 33
0.0
 14
-10.0
 24
-23.7
 34
0.0
 50
90.0
100
AcDbRotatedDimension
  0
DIMENSION
  5
7E
330
17
100
AcDbEntity
  8
WYMIARY
100
AcDbDimension
  2
*D4
  3
HAK
 10
-16.0
 20
-23.7
 30
0.0
 11
-12.95
 21
-26.1
 31
0.0
 70
32
 71
5
  1
<>
100
AcDbAlignedDimension
 13
-10.0
 23
-23.7
 33
0.0
 14
-10.0
 24
-28.5
 34
0.0
 50
90.0
100
AcDbRotatedDimension
  0
DIMENSION
  5
8D
330
17
100
AcDbEntity
  8
WYMIARY
100
AcDbDimension
  2
*D5
  3
HAK
 10
-3.6
 20
13.0
 30
0.0
 11
0.0
 21
16.05
 31
0.0
 70
32
 71
5
  1
<>
100
AcDbAlignedDimension
 13
-3.6
 23
3.6
 33
0.0
 14
3.6
 24
3.6
 34
0.0
 50
0.0
100
AcDbRotatedDimension
  0
DIMENSION
  5
9C
330
17
100
AcDbEntity
  8
WYMIARY
100
AcDbDimension
  2
*D6
  3
HAK
 10
0.0
 20
-17.0
 30
0.0
 11
5.0
 21
-14.95
 31
0.0
 70
32
 71
5
  1
<>
100
AcDbAlignedDimension
 13
0.0
 23
-15.0
 33
0.0
 14
10.0
 24
-15.0
 34
0.0
 50
0.0
100
AcDbRotatedDimension
  0
DIMENSION
  5
AB
330
17
100
AcDbEntity
  8
WYMIARY
100
AcDbDimension
  2
*D7
  3
HAK
 10
0.0
 20
0.0
 30
0.0
 11
-10.253048327204938
 21
13.152186130069783
 31
0.0
 70
36
 71
5
  1
<>
100
AcDbRadialDimension
 15
-7.071067811865475
 25
7.0710678118654755
 35
0.0
  0
DIMENSION
  5
B6
330
17
100
AcDbEntity
  8
WYMIARY
100
AcDbDimension
  2
*D8
  3
HAK
 10
6.0
 20
-24.5
 30
0.0
 11
14.025661966467313
 21
-29.626524163602475
 31
0.0
 70
36
 71
5
  1
<>
100
AcDbRadialDimension
 15
8.82842712474619
 25
-27.32842712474619
 35
0.0
  0
TEXT
  5
C1
330
17
100
AcDbEntity
  8
OPISY
100
AcDbText
 10
-22.0
 20
-48.0
 30
0.0
 40
2.5
  1
HAK obecny: obecny ksztalt (kontrolny)
 11
-22.0
 21
-48.0
 31
0.0
100
AcDbText
  0
TEXT
  5
C2
330
17
100
AcDbEntity
  8
OPISY
100
AcDbText
 10
-22.0
 20
-52.0
 30
0.0
 40
2.5
  1
stal nierdzewna / stainless steel 1,5 mm
 11
-22.0
 21
-52.0
 31
0.0
100
AcDbText
  0
TEXT
  5
C3
330
17
100
AcDbEntity
  8
ZAKRES_OBROTU
100
AcDbText
 10
-22.0
 20
-56.0
 30
0.0
 40
2.0
  1
zakres obrotu R29,9
 11
-22.0
 21
-56.0
 31
0.0
100
AcDbText
  0
LWPOLYLINE
  5
C4
330
17
100
AcDbEntity
  8
KONTUR
100
AcDbPolyline
 90
12
 70
1
 10
80.0
 20
0.0
 10
80.0
 20
-26.0
 42
-0.41421356237309503
 10
76.0
 20
-30.0
 10
61.0
 20
-30.0
 42
-0.41421356237309503
 10
60.0
 20
-29.0
 10
60.0
 20
-26.2
 42
-0.41421356237309503
 10
61.0
 20
-25.2
 42
0.1467142857142857
 10
75.0
 20
-25.2
 10
75.0
 20
-23.5
 10
71.0
 20
-23.5
 42
-0.41421356237309503
 10
70.0
 20
-22.5
 10
70.0
 20
-10.0
 42
-2.414213562373095
  0
LWPOLYLINE
  5
C5
330
17
100
AcDbEntity
  8
OTWOR
100
AcDbPolyline
 90
4
 70
1
 10
66.4
 20
-3.6
 10
73.6
 20
-3.6
 10
73.6
 20
3.6
 10
66.4
 20
3.6
  0
LINE
  5
C6
330
17
100
AcDbEntity
  8
OSIE
100
AcDbLine
 10
56.0
 20
0.0
 30
0.0
 11
84.0
 21
0.0
 31
0.0
  0
LINE
  5
C7
330
17
100
AcDbEntity
  8
OSIE
100
AcDbLine
 10
70.0
 20
14.0
 30
0.0
 11
70.0
 21
-34.5
 31
0.0
  0
CIRCLE
  5
C8
330
17
100
AcDbEntity
  8
ZAKRES_OBROTU
100
AcDbCircle
 10
70.0
 20
0.0
 30
0.0
 40
31.364719318566305
  0
DIMENSION
  5
C9
330
17
100
AcDbEntity
  8
WYMIARY
100
AcDbDimension
  2
*D9
  3
HAK
 10
87.0
 20
10.0
 30
0.0
 11
89.05
 21
-10.0
 31
0.0
 70
32
 71
5
  1
<>
100
AcDbAlignedDimension
 13
80.0
 23
10.0
 33
0.0
 14
80.0
 24
-30.0
 34
0.0
 50
90.0
100
AcDbRotatedDimension
  0
DIMENSION
  5
D8
330
17
100
AcDbEntity
  8
WYMIARY
100
AcDbDimension
  2
*D10
  3
HAK
 10
60.0
 20
-36.0
 30
0.0
 11
70.0
 21
-33.95
 31
0.0
 70
32
 71
5
  1
<>
100
AcDbAlignedDimension
 13
60.0
 23
-30.0
 33
0.0
 14
80.0
 24
-30.0
 34
0.0
 50
0.0
100
AcDbRotatedDimension
  0
DIMENSION
  5
E7
330
17
100
AcDbEntity
  8
WYMIARY
100
AcDbDimension
  2
*D11
  3
HAK
 10
54.0
 20
0.0
 30
0.0
 11
56.05
 21
-12.6
 31
0.0
 70
32
 71
5
  1
<>
100
AcDbAlignedDimension
 13
70.0
 23
0.0
 33
0.0
 14
60.0
 24
-25.2
 34
0.0
 50
90.0
100
AcDbRotatedDimension
  0
DIMENSION
  5
F6
330
17
100
AcDbEntity
  8
WYMIARY
100
AcDbDimension
  2
*D12
  3
HAK
 10
54.0
 20
-25.2
 30
0.0
 11
57.05
 21
-27.6
 31
0.0
 70
32
 71
5
  1
<>
100
AcDbAlignedDimension
 13
60.0
 23
-25.2
 33
0.0
 14
60.0
 24
-30.0
 34
0.0
 50
90.0
100
AcDbRotatedDimension
  0
DIMENSION
  5
105
330
17
100
AcDbEntity
  8
WYMIARY
100
AcDbDimension
  2
*D13
  3
HAK
 10
66.4
 20
13.0
 30
0.0
 11
70.0
 21
16.05
 31
0.0
 70
32
 71
5
  1
<>
100
AcDbAlignedDimension
 13
66.4
 23
3.6
 33
0.0
 14
73.6
 24
3.6
 34
0.0
 50
0.0
100
AcDbRotatedDimension
  0
DIMENSION
  5
114
330
17
100
AcDbEntity
  8
WYMIARY
100
AcDbDimension
  2
*D14
  3
HAK
 10
70.0
 20
-17.0
 30
0.0
 11
75.0
 21
-14.95
 31
0.0
 70
32
 71
5
  1
<>
100
AcDbAlignedDimension
 13
70.0
 23
-15.0
 33
0.0
 14
80.0
 24
-15.0
 34
0.0
 50
0.0
100
AcDbRotatedDimension
  0
DIMENSION
  5
123
330
17
100
AcDbEntity
  8
WYMIARY
100
AcDbDimension
  2
*D15
  3
HAK
 10
70.0
 20
0.0
 30
0.0
 11
59.746951672795056
 21
13.152186130069783
 31
0.0
 70
36
 71
5
  1
<>
100
AcDbRadialDimension
 15
62.928932188134524
 25
7.0710678118654755
 35
0.0
  0
DIMENSION
  5
12E
330
17
100
AcDbEntity
  8
WYMIARY
100
AcDbDimension
  2
*D16
  3
HAK
 10
76.0
 20
-26.0
 30
0.0
 11
84.02566196646731
 21
-31.126524163602475
 31
0.0
 70
36
 71
5
  1
<>
100
AcDbRadialDimension
 15
78.82842712474618
 25
-28.82842712474619
 35
0.0
  0
TEXT
  5
139
330
17
100
AcDbEntity
  8
OPISY
100
AcDbText
 10
48.0
 20
-49.5
 30
0.0
 40
2.5
  1
HAK os+1.5: jezyk 1,5 mm dalej od osi (= dostawca 40)
 11
48.0
 21
-49.5
 31
0.0
100
AcDbText
  0
TEXT
  5
13A
330
17
100
AcDbEntity
  8
OPISY
100
AcDbText
 10
48.0
 20
-53.5
 30
0.0
 40
2.5
  1
stal nierdzewna / stainless steel 1,5 mm
 11
48.0
 21
-53.5
 31
0.0
100
AcDbText
  0
TEXT
  5
13B
330
17
100
AcDbEntity
  8
ZAKRES_OBROTU
100
AcDbText
 10
48.0
 20
-57.5
 30
0.0
 40
2.0
  1
zakres obrotu R31,4
 11
48.0
 21
-57.5
 31
0.0
100
AcDbText
  0
LWPOLYLINE
  5
13C
330
17
100
AcDbEntity
  8
KONTUR
100
AcDbPolyline
 90
12
 70
1
 10
150.0
 20
0.0
 10
150.0
 20
-27.5
 42
-0.41421356237309503
 10
146.0
 20
-31.5
 10
131.0
 20
-31.5
 42
-0.41421356237309503
 10
130.0
 20
-30.5
 10
130.0
 20
-27.7
 42
-0.41421356237309503
 10
131.0
 20
-26.7
 42
0.1467142857142857
 10
145.0
 20
-26.7
 10
145.0
 20
-25.0
 10
141.0
 20
-25.0
 42
-0.41421356237309503
 10
140.0
 20
-24.0
 10
140.0
 20
-10.0
 42
-2.414213562373095
  0
LWPOLYLINE
  5
13D
330
17
100
AcDbEntity
  8
OTWOR
100
AcDbPolyline
 90
4
 70
1
 10
136.4
 20
-3.6
 10
143.6
 20
-3.6
 10
143.6
 20
3.6
 10
136.4
 20
3.6
  0
LINE
  5
13E
330
17
100
AcDbEntity
  8
OSIE
100
AcDbLine
 10
126.0
 20
0.0
 30
0.0
 11
154.0
 21
0.0
 31
0.0
  0
LINE
  5
13F
330
17
100
AcDbEntity
  8
OSIE
100
AcDbLine
 10
140.0
 20
14.0
 30
0.0
 11
140.0
 21
-36.0
 31
0.0
  0
CIRCLE
  5
140
330
17
100
AcDbEntity
  8
ZAKRES_OBROTU
100
AcDbCircle
 10
140.0
 20
0.0
 30
0.0
 40
32.80031621601124
  0
DIMENSION
  5
141
330
17
100
AcDbEntity
  8
WYMIARY
100
AcDbDimension
  2
*D17
  3
HAK
 10
157.0
 20
10.0
 30
0.0
 11
159.05
 21
-10.75
 31
0.0
 70
32
 71
5
  1
<>
100
AcDbAlignedDimension
 13
150.0
 23
10.0
 33
0.0
 14
150.0
 24
-31.5
 34
0.0
 50
90.0
100
AcDbRotatedDimension
  0
DIMENSION
  5
150
330
17
100
AcDbEntity
  8
WYMIARY
100
AcDbDimension
  2
*D18
  3
HAK
 10
130.0
 20
-37.5
 30
0.0
 11
140.0
 21
-35.45
 31
0.0
 70
32
 71
5
  1
<>
100
AcDbAlignedDimension
 13
130.0
 23
-31.5
 33
0.0
 14
150.0
 24
-31.5
 34
0.0
 50
0.0
100
AcDbRotatedDimension
  0
DIMENSION
  5
15F
330
17
100
AcDbEntity
  8
WYMIARY
100
AcDbDimension
  2
*D19
  3
HAK
 10
124.0
 20
0.0
 30
0.0
 11
126.05
 21
-13.35
 31
0.0
 70
32
 71
5
  1
<>
100
AcDbAlignedDimension
 13
140.0
 23
0.0
 33
0.0
 14
130.0
 24
-26.7
 34
0.0
 50
90.0
100
AcDbRotatedDimension
  0
DIMENSION
  5
16E
330
17
100
AcDbEntity
  8
WYMIARY
100
AcDbDimension
  2
*D20
  3
HAK
 10
124.0
 20
-26.7
 30
0.0
 11
127.05
 21
-29.1
 31
0.0
 70
32
 71
5
  1
<>
100
AcDbAlignedDimension
 13
130.0
 23
-26.7
 33
0.0
 14
130.0
 24
-31.5
 34
0.0
 50
90.0
100
AcDbRotatedDimension
  0
DIMENSION
  5
17D
330
17
100
AcDbEntity
  8
WYMIARY
100
AcDbDimension
  2
*D21
  3
HAK
 10
136.4
 20
13.0
 30
0.0
 11
140.0
 21
16.05
 31
0.0
 70
32
 71
5
  1
<>
100
AcDbAlignedDimension
 13
136.4
 23
3.6
 33
0.0
 14
143.6
 24
3.6
 34
0.0
 50
0.0
100
AcDbRotatedDimension
  0
DIMENSION
  5
18C
330
17
100
AcDbEntity
  8
WYMIARY
100
AcDbDimension
  2
*D22
  3
HAK
 10
140.0
 20
-17.0
 30
0.0
 11
145.0
 21
-14.95
 31
0.0
 70
32
 71
5
  1
<>
100
AcDbAlignedDimension
 13
140.0
 23
-15.0
 33
0.0
 14
150.0
 24
-15.0
 34
0.0
 50
0.0
100
AcDbRotatedDimension
  0
DIMENSION
  5
19B
330
17
100
AcDbEntity
  8
WYMIARY
100
AcDbDimension
  2
*D23
  3
HAK
 10
140.0
 20
0.0
 30
0.0
 11
129.74695167279506
 21
13.152186130069783
 31
0.0
 70
36
 71
5
  1
<>
100
AcDbRadialDimension
 15
132.92893218813452
 25
7.0710678118654755
 35
0.0
  0
DIMENSION
  5
1A6
330
17
100
AcDbEntity
  8
WYMIARY
100
AcDbDimension
  2
*D24
  3
HAK
 10
146.0
 20
-27.5
 30
0.0
 11
154.0256619664673
 21
-32.626524163602475
 31
0.0
 70
36
 71
5
  1
<>
100
AcDbRadialDimension
 15
148.82842712474618
 25
-30.32842712474619
 35
0.0
  0
TEXT
  5
1B1
330
17
100
AcDbEntity
  8
OPISY
100
AcDbText
 10
118.0
 20
-51.0
 30
0.0
 40
2.5
  1
HAK os+3: jezyk 3 mm dalej od osi
 11
118.0
 21
-51.0
 31
0.0
100
AcDbText
  0
TEXT
  5
1B2
330
17
100
AcDbEntity
  8
OPISY
100
AcDbText
 10
118.0
 20
-55.0
 30
0.0
 40
2.5
  1
stal nierdzewna / stainless steel 1,5 mm
 11
118.0
 21
-55.0
 31
0.0
100
AcDbText
  0
TEXT
  5
1B3
330
17
100
AcDbEntity
  8
ZAKRES_OBROTU
100
AcDbText
 10
118.0
 20
-59.0
 30
0.0
 40
2.0
  1
zakres obrotu R32,8
 11
118.0
 21
-59.0
 31
0.0
100
AcDbText
  0
LWPOLYLINE
  5
1B4
330
17
100
AcDbEntity
  8
KONTUR
100
AcDbPolyline
 90
12
 70
1
 10
220.0
 20
0.0
 10
220.0
 20
-24.5
 42
-0.41421356237309503
 10
216.0
 20
-28.5
 10
198.0
 20
-28.5
 42
-0.41421356237309503
 10
197.0
 20
-27.5
 10
197.0
 20
-24.7
 42
-0.41421356237309503
 10
198.0
 20
-23.7
 42
0.12082352941176469
 10
215.0
 20
-23.7
 10
215.0
 20
-22.0
 10
211.0
 20
-22.0
 42
-0.41421356237309503
 10
210.0
 20
-21.0
 10
210.0
 20
-10.0
 42
-2.414213562373095
  0
LWPOLYLINE
  5
1B5
330
17
100
AcDbEntity
  8
OTWOR
100
AcDbPolyline
 90
4
 70
1
 10
206.4
 20
-3.6
 10
213.6
 20
-3.6
 10
213.6
 20
3.6
 10
206.4
 20
3.6
  0
LINE
  5
1B6
330
17
100
AcDbEntity
  8
OSIE
100
AcDbLine
 10
193.0
 20
0.0
 30
0.0
 11
224.0
 21
0.0
 31
0.0
  0
LINE
  5
1B7
330
17
100
AcDbEntity
  8
OSIE
100
AcDbLine
 10
210.0
 20
14.0
 30
0.0
 11
210.0
 21
-33.0
 31
0.0
  0
CIRCLE
  5
1B8
330
17
100
AcDbEntity
  8
ZAKRES_OBROTU
100
AcDbCircle
 10
210.0
 20
0.0
 30
0.0
 40
31.0043582082535
  0
DIMENSION
  5
1B9
330
17
100
AcDbEntity
  8
WYMIARY
100
AcDbDimension
  2
*D25
  3
HAK
 10
227.0
 20
10.0
 30
0.0
 11
229.05
 21
-9.25
 31
0.0
 70
32
 71
5
  1
<>
100
AcDbAlignedDimension
 13
220.0
 23
10.0
 33
0.0
 14
220.0
 24
-28.5
 34
0.0
 50
90.0
100
AcDbRotatedDimension
  0
DIMENSION
  5
1C8
330
17
100
AcDbEntity
  8
WYMIARY
100
AcDbDimension
  2
*D26
  3
HAK
 10
197.0
 20
-34.5
 30
0.0
 11
208.5
 21
-32.45
 31
0.0
 70
32
 71
5
  1
<>
100
AcDbAlignedDimension
 13
197.0
 23
-28.5
 33
0.0
 14
220.0
 24
-28.5
 34
0.0
 50
0.0
100
AcDbRotatedDimension
  0
DIMENSION
  5
1D7
330
17
100
AcDbEntity
  8
WYMIARY
100
AcDbDimension
  2
*D27
  3
HAK
 10
191.0
 20
0.0
 30
0.0
 11
193.05
 21
-11.85
 31
0.0
 70
32
 71
5
  1
<>
100
AcDbAlignedDimension
 13
210.0
 23
0.0
 33
0.0
 14
197.0
 24
-23.7
 34
0.0
 50
90.0
100
AcDbRotatedDimension
  0
DIMENSION
  5
1E6
330
17
100
AcDbEntity
  8
WYMIARY
100
AcDbDimension
  2
*D28
  3
HAK
 10
191.0
 20
-23.7
 30
0.0
 11
194.05
 21
-26.1
 31
0.0
 70
32
 71
5
  1
<>
100
AcDbAlignedDimension
 13
197.0
 23
-23.7
 33
0.0
 14
197.0
 24
-28.5
 34
0.0
 50
90.0
100
AcDbRotatedDimension
  0
DIMENSION
  5
1F5
330
17
100
AcDbEntity
  8
WYMIARY
100
AcDbDimension
  2
*D29
  3
HAK
 10
206.4
 20
13.0
 30
0.0
 11
210.0
 21
16.05
 31
0.0
 70
32
 71
5
  1
<>
100
AcDbAlignedDimension
 13
206.4
 23
3.6
 33
0.0
 14
213.6
 24
3.6
 34
0.0
 50
0.0
100
AcDbRotatedDimension
  0
DIMENSION
  5
204
330
17
100
AcDbEntity
  8
WYMIARY
100
AcDbDimension
  2
*D30
  3
HAK
 10
210.0
 20
-17.0
 30
0.0
 11
215.0
 21
-14.95
 31
0.0
 70
32
 71
5
  1
<>
100
AcDbAlignedDimension
 13
210.0
 23
-15.0
 33
0.0
 14
220.0
 24
-15.0
 34
0.0
 50
0.0
100
AcDbRotatedDimension
  0
DIMENSION
  5
213
330
17
100
AcDbEntity
  8
WYMIARY
100
AcDbDimension
  2
*D31
  3
HAK
 10
210.0
 20
0.0
 30
0.0
 11
199.74695167279506
 21
13.152186130069783
 31
0.0
 70
36
 71
5
  1
<>
100
AcDbRadialDimension
 15
202.92893218813452
 25
7.0710678118654755
 35
0.0
  0
DIMENSION
  5
21E
330
17
100
AcDbEntity
  8
WYMIARY
100
AcDbDimension
  2
*D32
  3
HAK
 10
216.0
 20
-24.5
 30
0.0
 11
224.0256619664673
 21
-29.62652416360248
 31
0.0
 70
36
 71
5
  1
<>
100
AcDbRadialDimension
 15
218.82842712474618
 25
-27.32842712474619
 35
0.0
  0
TEXT
  5
229
330
17
100
AcDbEntity
  8
OPISY
100
AcDbText
 10
188.0
 20
-48.0
 30
0.0
 40
2.5
  1
HAK bok+3: czubek jezyka 3 mm dalej w bok (= dostawca 3mm)
 11
188.0
 21
-48.0
 31
0.0
100
AcDbText
  0
TEXT
  5
22A
330
17
100
AcDbEntity
  8
OPISY
100
AcDbText
 10
188.0
 20
-52.0
 30
0.0
 40
2.5
  1
stal nierdzewna / stainless steel 1,5 mm
 11
188.0
 21
-52.0
 31
0.0
100
AcDbText
  0
TEXT
  5
22B
330
17
100
AcDbEntity
  8
ZAKRES_OBROTU
100
AcDbText
 10
188.0
 20
-56.0
 30
0.0
 40
2.0
  1
zakres obrotu R31,0
 11
188.0
 21
-56.0
 31
0.0
100
AcDbText
  0
LWPOLYLINE
  5
22C
330
17
100
AcDbEntity
  8
KONTUR
100
AcDbPolyline
 90
12
 70
1
 10
290.0
 20
0.0
 10
290.0
 20
-24.5
 42
-0.41421356237309503
 10
286.0
 20
-28.5
 10
266.0
 20
-28.5
 42
-0.41421356237309503
 10
265.0
 20
-27.5
 10
265.0
 20
-24.7
 42
-0.41421356237309503
 10
266.0
 20
-23.7
 42
0.10810526315789473
 10
285.0
 20
-23.7
 10
285.0
 20
-22.0
 10
281.0
 20
-22.0
 42
-0.41421356237309503
 10
280.0
 20
-21.0
 10
280.0
 20
-10.0
 42
-2.414213562373095
  0
LWPOLYLINE
  5
22D
330
17
100
AcDbEntity
  8
OTWOR
100
AcDbPolyline
 90
4
 70
1
 10
276.4
 20
-3.6
 10
283.6
 20
-3.6
 10
283.6
 20
3.6
 10
276.4
 20
3.6
  0
LINE
  5
22E
330
17
100
AcDbEntity
  8
OSIE
100
AcDbLine
 10
261.0
 20
0.0
 30
0.0
 11
294.0
 21
0.0
 31
0.0
  0
LINE
  5
22F
330
17
100
AcDbEntity
  8
OSIE
100
AcDbLine
 10
280.0
 20
14.0
 30
0.0
 11
280.0
 21
-33.0
 31
0.0
  0
CIRCLE
  5
230
330
17
100
AcDbEntity
  8
ZAKRES_OBROTU
100
AcDbCircle
 10
280.0
 20
0.0
 30
0.0
 40
31.858415556916807
  0
DIMENSION
  5
231
330
17
100
AcDbEntity
  8
WYMIARY
100
AcDbDimension
  2
*D33
  3
HAK
 10
297.0
 20
10.0
 30
0.0
 11
299.05
 21
-9.25
 31
0.0
 70
32
 71
5
  1
<>
100
AcDbAlignedDimension
 13
290.0
 23
10.0
 33
0.0
 14
290.0
 24
-28.5
 34
0.0
 50
90.0
100
AcDbRotatedDimension
  0
DIMENSION
  5
240
330
17
100
AcDbEntity
  8
WYMIARY
100
AcDbDimension
  2
*D34
  3
HAK
 10
265.0
 20
-34.5
 30
0.0
 11
277.5
 21
-32.45
 31
0.0
 70
32
 71
5
  1
<>
100
AcDbAlignedDimension
 13
265.0
 23
-28.5
 33
0.0
 14
290.0
 24
-28.5
 34
0.0
 50
0.0
100
AcDbRotatedDimension
  0
DIMENSION
  5
24F
330
17
100
AcDbEntity
  8
WYMIARY
100
AcDbDimension
  2
*D35
  3
HAK
 10
259.0
 20
0.0
 30
0.0
 11
261.05
 21
-11.85
 31
0.0
 70
32
 71
5
  1
<>
100
AcDbAlignedDimension
 13
280.0
 23
0.0
 33
0.0
 14
265.0
 24
-23.7
 34
0.0
 50
90.0
100
AcDbRotatedDimension
  0
DIMENSION
  5
25E
330
17
100
AcDbEntity
  8
WYMIARY
100
AcDbDimension
  2
*D36
  3
HAK
 10
259.0
 20
-23.7
 30
0.0
 11
262.05
 21
-26.1
 31
0.0
 70
32
 71
5
  1
<>
100
AcDbAlignedDimension
 13
265.0
 23
-23.7
 33
0.0
 14
265.0
 24
-28.5
 34
0.0
 50
90.0
100
AcDbRotatedDimension
  0
DIMENSION
  5
26D
330
17
100
AcDbEntity
  8
WYMIARY
100
AcDbDimension
  2
*D37
  3
HAK
 10
276.4
 20
13.0
 30
0.0
 11
280.0
 21
16.05
 31
0.0
 70
32
 71
5
  1
<>
100
AcDbAlignedDimension
 13
276.4
 23
3.6
 33
0.0
 14
283.6
 24
3.6
 34
0.0
 50
0.0
100
AcDbRotatedDimension
  0
DIMENSION
  5
27C
330
17
100
AcDbEntity
  8
WYMIARY
100
AcDbDimension
  2
*D38
  3
HAK
 10
280.0
 20
-17.0
 30
0.0
 11
285.0
 21
-14.95
 31
0.0
 70
32
 71
5
  1
<>
100
AcDbAlignedDimension
 13
280.0
 23
-15.0
 33
0.0
 14
290.0
 24
-15.0
 34
0.0
 50
0.0
100
AcDbRotatedDimension
  0
DIMENSION
  5
28B
330
17
100
AcDbEntity
  8
WYMIARY
100
AcDbDimension
  2
*D39
  3
HAK
 10
280.0
 20
0.0
 30
0.0
 11
269.7469516727951
 21
13.152186130069783
 31
0.0
 70
36
 71
5
  1
<>
100
AcDbRadialDimension
 15
272.9289321881345
 25
7.0710678118654755
 35
0.0
  0
DIMENSION
  5
296
330
17
100
AcDbEntity
  8
WYMIARY
100
AcDbDimension
  2
*D40
  3
HAK
 10
286.0
 20
-24.5
 30
0.0
 11
294.02566196646734
 21
-29.62652416360245
 31
0.0
 70
36
 71
5
  1
<>
100
AcDbRadialDimension
 15
288.8284271247462
 25
-27.32842712474619
 35
0.0
  0
TEXT
  5
2A1
330
17
100
AcDbEntity
  8
OPISY
100
AcDbText
 10
258.0
 20
-48.0
 30
0.0
 40
2.5
  1
HAK bok+5: czubek jezyka 5 mm dalej w bok
 11
258.0
 21
-48.0
 31
0.0
100
AcDbText
  0
TEXT
  5
2A2
330
17
100
AcDbEntity
  8
OPISY
100
AcDbText
 10
258.0
 20
-52.0
 30
0.0
 40
2.5
  1
stal nierdzewna / stainless steel 1,5 mm
 11
258.0
 21
-52.0
 31
0.0
100
AcDbText
  0
TEXT
  5
2A3
330
17
100
AcDbEntity
  8
ZAKRES_OBROTU
100
AcDbText
 10
258.0
 20
-56.0
 30
0.0
 40
2.0
  1
zakres obrotu R31,9
 11
258.0
 21
-56.0
 31
0.0
100
AcDbText
  0
LWPOLYLINE
  5
2A4
330
17
100
AcDbEntity
  8
KONTUR
100
AcDbPolyline
 90
12
 70
1
 10
360.0
 20
0.0
 10
360.0
 20
-26.0
 42
-0.41421356237309503
 10
356.0
 20
-30.0
 10
338.0
 20
-30.0
 42
-0.41421356237309503
 10
337.0
 20
-29.0
 10
337.0
 20
-26.2
 42
-0.41421356237309503
 10
338.0
 20
-25.2
 42
0.12082352941176469
 10
355.0
 20
-25.2
 10
355.0
 20
-23.5
 10
351.0
 20
-23.5
 42
-0.41421356237309503
 10
350.0
 20
-22.5
 10
350.0
 20
-10.0
 42
-2.414213562373095
  0
LWPOLYLINE
  5
2A5
330
17
100
AcDbEntity
  8
OTWOR
100
AcDbPolyline
 90
4
 70
1
 10
346.4
 20
-3.6
 10
353.6
 20
-3.6
 10
353.6
 20
3.6
 10
346.4
 20
3.6
  0
LINE
  5
2A6
330
17
100
AcDbEntity
  8
OSIE
100
AcDbLine
 10
333.0
 20
0.0
 30
0.0
 11
364.0
 21
0.0
 31
0.0
  0
LINE
  5
2A7
330
17
100
AcDbEntity
  8
OSIE
100
AcDbLine
 10
350.0
 20
14.0
 30
0.0
 11
350.0
 21
-34.5
 31
0.0
  0
CIRCLE
  5
2A8
330
17
100
AcDbEntity
  8
ZAKRES_OBROTU
100
AcDbCircle
 10
350.0
 20
0.0
 30
0.0
 40
32.38494207242821
  0
DIMENSION
  5
2A9
330
17
100
AcDbEntity
  8
WYMIARY
100
AcDbDimension
  2
*D41
  3
HAK
 10
367.0
 20
10.0
 30
0.0
 11
369.05
 21
-10.0
 31
0.0
 70
32
 71
5
  1
<>
100
AcDbAlignedDimension
 13
360.0
 23
10.0
 33
0.0
 14
360.0
 24
-30.0
 34
0.0
 50
90.0
100
AcDbRotatedDimension
  0
DIMENSION
  5
2B8
330
17
100
AcDbEntity
  8
WYMIARY
100
AcDbDimension
  2
*D42
  3
HAK
 10
337.0
 20
-36.0
 30
0.0
 11
348.5
 21
-33.95
 31
0.0
 70
32
 71
5
  1
<>
100
AcDbAlignedDimension
 13
337.0
 23
-30.0
 33
0.0
 14
360.0
 24
-30.0
 34
0.0
 50
0.0
100
AcDbRotatedDimension
  0
DIMENSION
  5
2C7
330
17
100
AcDbEntity
  8
WYMIARY
100
AcDbDimension
  2
*D43
  3
HAK
 10
331.0
 20
0.0
 30
0.0
 11
333.05
 21
-12.6
 31
0.0
 70
32
 71
5
  1
<>
100
AcDbAlignedDimension
 13
350.0
 23
0.0
 33
0.0
 14
337.0
 24
-25.2
 34
0.0
 50
90.0
100
AcDbRotatedDimension
  0
DIMENSION
  5
2D6
330
17
100
AcDbEntity
  8
WYMIARY
100
AcDbDimension
  2
*D44
  3
HAK
 10
331.0
 20
-25.2
 30
0.0
 11
334.05
 21
-27.6
 31
0.0
 70
32
 71
5
  1
<>
100
AcDbAlignedDimension
 13
337.0
 23
-25.2
 33
0.0
 14
337.0
 24
-30.0
 34
0.0
 50
90.0
100
AcDbRotatedDimension
  0
DIMENSION
  5
2E5
330
17
100
AcDbEntity
  8
WYMIARY
100
AcDbDimension
  2
*D45
  3
HAK
 10
346.4
 20
13.0
 30
0.0
 11
350.0
 21
16.05
 31
0.0
 70
32
 71
5
  1
<>
100
AcDbAlignedDimension
 13
346.4
 23
3.6
 33
0.0
 14
353.6
 24
3.6
 34
0.0
 50
0.0
100
AcDbRotatedDimension
  0
DIMENSION
  5
2F4
330
17
100
AcDbEntity
  8
WYMIARY
100
AcDbDimension
  2
*D46
  3
HAK
 10
350.0
 20
-17.0
 30
0.0
 11
355.0
 21
-14.95
 31
0.0
 70
32
 71
5
  1
<>
100
AcDbAlignedDimension
 13
350.0
 23
-15.0
 33
0.0
 14
360.0
 24
-15.0
 34
0.0
 50
0.0
100
AcDbRotatedDimension
  0
DIMENSION
  5
303
330
17
100
AcDbEntity
  8
WYMIARY
100
AcDbDimension
  2
*D47
  3
HAK
 10
350.0
 20
0.0
 30
0.0
 11
339.7469516727951
 21
13.152186130069783
 31
0.0
 70
36
 71
5
  1
<>
100
AcDbRadialDimension
 15
342.9289321881345
 25
7.0710678118654755
 35
0.0
  0
DIMENSION
  5
30E
330
17
100
AcDbEntity
  8
WYMIARY
100
AcDbDimension
  2
*D48
  3
HAK
 10
356.0
 20
-26.0
 30
0.0
 11
364.02566196646734
 21
-31.126524163602454
 31
0.0
 70
36
 71
5
  1
<>
100
AcDbRadialDimension
 15
358.8284271247462
 25
-28.82842712474619
 35
0.0
  0
TEXT
  5
319
330
17
100
AcDbEntity
  8
OPISY
100
AcDbText
 10
328.0
 20
-49.5
 30
0.0
 40
2.5
  1
HAK os+1.5_bok+3: jezyk 1,5 mm dalej od osi i 3 mm dalej w bok
 11
328.0
 21
-49.5
 31
0.0
100
AcDbText
  0
TEXT
  5
31A
330
17
100
AcDbEntity
  8
OPISY
100
AcDbText
 10
328.0
 20
-53.5
 30
0.0
 40
2.5
  1
stal nierdzewna / stainless steel 1,5 mm
 11
328.0
 21
-53.5
 31
0.0
100
AcDbText
  0
TEXT
  5
31B
330
17
100
AcDbEntity
  8
ZAKRES_OBROTU
100
AcDbText
 10
328.0
 20
-57.5
 30
0.0
 40
2.0
  1
zakres obrotu R32,4
 11
328.0
 21
-57.5
 31
0.0
100
AcDbText
  0
ENDSEC
  0
SECTION
  2
OBJECTS
  0
DICTIONARY
  5
A
330
0
100
AcDbDictionary
281
1
  3
ACAD_COLOR
350
B
  3
ACAD_GROUP
350
C
  3
ACAD_LAYOUT
350
D
  3
ACAD_MATERIAL
350
E
  3
ACAD_MLEADERSTYLE
350
F
  3
ACAD_MLINESTYLE
350
10
  3
ACAD_PLOTSETTINGS
350
11
  3
ACAD_PLOTSTYLENAME
350
12
  3
ACAD_SCALELIST
350
14
  3
ACAD_TABLESTYLE
350
15
  3
ACAD_VISUALSTYLE
350
16
  3
EZDXF_META
350
2D
  0
DICTIONARY
  5
B
330
A
100
AcDbDictionary
281
1
  0
DICTIONARY
  5
C
330
A
100
AcDbDictionary
281
1
  0
DICTIONARY
  5
D
330
A
100
AcDbDictionary
281
1
  3
Model
350
1A
  3
Layout1
350
1E
  0
DICTIONARY
  5
E
330
A
100
AcDbDictionary
281
1
  3
ByBlock
350
1F
  3
ByLayer
350
20
  3
Global
350
21
  0
DICTIONARY
  5
F
330
A
100
AcDbDictionary
281
1
  3
Standard
350
2C
  0
DICTIONARY
  5
10
330
A
100
AcDbDictionary
281
1
  3
Standard
350
22
  0
DICTIONARY
  5
11
330
A
100
AcDbDictionary
281
1
  0
ACDBDICTIONARYWDFLT
  5
12
330
A
100
AcDbDictionary
281
1
  3
Normal
350
13
100
AcDbDictionaryWithDefault
340
13
  0
ACDBPLACEHOLDER
  5
13
330
12
  0
DICTIONARY
  5
14
330
A
100
AcDbDictionary
281
1
  0
DICTIONARY
  5
15
330
A
100
AcDbDictionary
281
1
  0
DICTIONARY
  5
16
330
A
100
AcDbDictionary
281
1
  0
LAYOUT
  5
1A
330
D
100
AcDbPlotSettings
  1

  4
A3
  6

 40
7.5
 41
20.0
 42
7.5
 43
20.0
 44
420.0
 45
297.0
 46
0.0
 47
0.0
 48
0.0
 49
0.0
140
0.0
141
0.0
142
1.0
143
1.0
 70
1024
 72
1
 73
0
 74
5
  7

 75
16
 76
0
 77
2
 78
300
147
1.0
148
0.0
149
0.0
100
AcDbLayout
  1
Model
 70
1
 71
0
 10
0.0
 20
0.0
 11
420.0
 21
297.0
 12
0.0
 22
0.0
 32
0.0
 14
1e+20
 24
1e+20
 34
1e+20
 15
-1e+20
 25
-1e+20
 35
-1e+20
146
0.0
 13
0.0
 23
0.0
 33
0.0
 16
1.0
 26
0.0
 36
0.0
 17
0.0
 27
1.0
 37
0.0
 76
1
330
17
  0
LAYOUT
  5
1E
330
D
100
AcDbPlotSettings
  1

  4
A3
  6

 40
7.5
 41
20.0
 42
7.5
 43
20.0
 44
420.0
 45
297.0
 46
0.0
 47
0.0
 48
0.0
 49
0.0
140
0.0
141
0.0
142
1.0
143
1.0
 70
0
 72
1
 73
0
 74
5
  7

 75
16
 76
0
 77
2
 78
300
147
1.0
148
0.0
149
0.0
100
AcDbLayout
  1
Layout1
 70
1
 71
1
 10
0.0
 20
0.0
 11
420.0
 21
297.0
 12
0.0
 22
0.0
 32
0.0
 14
1e+20
 24
1e+20
 34
1e+20
 15
-1e+20
 25
-1e+20
 35
-1e+20
146
0.0
 13
0.0
 23
0.0
 33
0.0
 16
1.0
 26
0.0
 36
0.0
 17
0.0
 27
1.0
 37
0.0
 76
1
330
1B
  0
MATERIAL
  5
1F
102
{ACAD_REACTORS
330
E
102
}
330
E
100
AcDbMaterial
  1
ByBlock
  2

 70
0
 40
1.0
 71
1
 41
1.0
 91
-1023410177
 42
1.0
 72
1
  3

 73
1
 74
1
 75
1
 44
0.5
 73
0
 45
1.0
 46
1.0
 77
1
  4

 78
1
 79
1
170
1
 48
1.0
171
1
  6

172
1
173
1
174
1
140
1.0
141
1.0
175
1
  7

176
1
177
1
178
1
143
1.0
179
1
  8

270
1
271
1
272
1
145
1.0
146
1.0
273
1
  9

274
1
275
1
276
1
 42
1.0
 72
1
  3

 73
1
 74
1
 75
1
 94
63
  0
MATERIAL
  5
20
102
{ACAD_REACTORS
330
E
102
}
330
E
100
AcDbMaterial
  1
ByLayer
  2

 70
0
 40
1.0
 71
1
 41
1.0
 91
-1023410177
 42
1.0
 72
1
  3

 73
1
 74
1
 75
1
 44
0.5
 73
0
 45
1.0
 46
1.0
 77
1
  4

 78
1
 79
1
170
1
 48
1.0
171
1
  6

172
1
173
1
174
1
140
1.0
141
1.0
175
1
  7

176
1
177
1
178
1
143
1.0
179
1
  8

270
1
271
1
272
1
145
1.0
146
1.0
273
1
  9

274
1
275
1
276
1
 42
1.0
 72
1
  3

 73
1
 74
1
 75
1
 94
63
  0
MATERIAL
  5
21
102
{ACAD_REACTORS
330
E
102
}
330
E
100
AcDbMaterial
  1
Global
  2

 70
0
 40
1.0
 71
1
 41
1.0
 91
-1023410177
 42
1.0
 72
1
  3

 73
1
 74
1
 75
1
 44
0.5
 73
0
 45
1.0
 46
1.0
 77
1
  4

 78
1
 79
1
170
1
 48
1.0
171
1
  6

172
1
173
1
174
1
140
1.0
141
1.0
175
1
  7

176
1
177
1
178
1
143
1.0
179
1
  8

270
1
271
1
272
1
145
1.0
146
1.0
273
1
  9

274
1
275
1
276
1
 42
1.0
 72
1
  3

 73
1
 74
1
 75
1
 94
63
  0
MLINESTYLE
  5
22
102
{ACAD_REACTORS
330
10
102
}
330
10
100
AcDbMlineStyle
  2
Standard
 70
0
  3

 62
256
 51
90.0
 52
90.0
 71
2
 49
0.5
 62
256
  6
BYLAYER
 49
-0.5
 62
256
  6
BYLAYER
  0
MLEADERSTYLE
  5
2C
102
{ACAD_REACTORS
330
F
102
}
330
F
100
AcDbMLeaderStyle
179
2
170
2
171
1
172
0
 90
2
 40
0.0
 41
0.0
173
1
 91
-1056964608
 92
-2
290
1
 42
2.0
291
1
 43
8.0
  3
Standard
 44
4.0
300

342
29
174
1
175
1
176
0
178
1
 93
-1056964608
 45
4.0
292
0
297
0
 46
4.0
 94
-1056964608
 47
1.0
 49
1.0
140
1.0
294
1
141
0.0
177
0
142
1.0
295
0
296
0
143
3.75
271
0
272
9
273
9
  0
DICTIONARY
  5
2D
330
A
100
AcDbDictionary
280
1
281
1
  3
CREATED_BY_EZDXF
350
2E
  3
WRITTEN_BY_EZDXF
350
31E
  0
DICTIONARYVAR
  5
2E
330
2D
100
DictionaryVariables
280
0
  1
1.4.4 @ 2026-10-07T12:28:39.770558+00:00
  0
DICTIONARYVAR
  5
31E
330
2D
100
DictionaryVariables
280
0
  1
1.4.4 @ 2026-10-07T12:28:39.846973+00:00
  0
ENDSEC
  0
EOF
